<svg width="196" height="427" viewBox="0 0 196 427" fill="none" xmlns="http://www.w3.org/2000/svg">
<path d="M19.68 6.24H13.36V9.168H18.704V11.248H13.36V16.288H10.928V4.16H19.68V6.24ZM26.8048 10.56C27.3701 10.56 27.8181 10.368 28.1488 9.984C28.4901 9.58933 28.6608 9.06133 28.6608 8.4C28.6608 7.96267 28.5861 7.584 28.4368 7.264C28.2874 6.93333 28.0688 6.68267 27.7808 6.512C27.5034 6.33067 27.1781 6.24 26.8048 6.24H23.8608V10.56H26.8048ZM28.6608 16.288L25.9728 12.64H23.8608V16.288H21.4288V4.16H27.3328C28.0581 4.16 28.7034 4.336 29.2688 4.688C29.8448 5.04 30.2928 5.53067 30.6128 6.16C30.9328 6.78933 31.0928 7.504 31.0928 8.304C31.0928 8.82667 31.0234 9.31733 30.8848 9.776C30.7461 10.224 30.4954 10.656 30.1328 11.072C29.7808 11.4773 29.2954 11.856 28.6768 12.208L31.6688 16.288H28.6608ZM38.1795 14.304C38.9368 14.304 39.5928 14.1387 40.1475 13.808C40.7128 13.4773 41.1448 13.008 41.4435 12.4C41.7422 11.7813 41.8915 11.056 41.8915 10.224C41.8915 9.392 41.7422 8.672 41.4435 8.064C41.1448 7.44533 40.7128 6.97067 40.1475 6.64C39.5928 6.30933 38.9368 6.144 38.1795 6.144C37.4222 6.144 36.7608 6.30933 36.1955 6.64C35.6408 6.97067 35.2142 7.44533 34.9155 8.064C34.6168 8.672 34.4675 9.392 34.4675 10.224C34.4675 11.056 34.6168 11.7813 34.9155 12.4C35.2142 13.008 35.6408 13.4773 36.1955 13.808C36.7608 14.1387 37.4222 14.304 38.1795 14.304ZM38.1795 4.032C39.3635 4.032 40.4195 4.29867 41.3475 4.832C42.2862 5.35467 43.0168 6.08533 43.5395 7.024C44.0622 7.96267 44.3235 9.02933 44.3235 10.224C44.3235 11.4187 44.0622 12.4853 43.5395 13.424C43.0168 14.3627 42.2862 15.0987 41.3475 15.632C40.4195 16.1547 39.3635 16.416 38.1795 16.416C36.9955 16.416 35.9342 16.1547 34.9955 15.632C34.0675 15.0987 33.3422 14.3627 32.8195 13.424C32.2968 12.4853 32.0355 11.4187 32.0355 10.224C32.0355 9.02933 32.2968 7.96267 32.8195 7.024C33.3422 6.08533 34.0675 5.35467 34.9955 4.832C35.9342 4.29867 36.9955 4.032 38.1795 4.032ZM48.2198 8.048V16.288H45.7878V4.16H48.5398L52.5718 10.144L56.6038 4.16H59.3558V16.288H56.9238V8.048L52.5718 14.08L48.2198 8.048Z" fill="#FFD74A"/>
<path d="M147.046 109.288H144.95L142.006 100.872L139.382 109.288H137.286L133.19 97.16H135.75L138.342 105.224L140.662 97.176H143.318L145.766 105.224L147.814 97.16H150.374L147.046 109.288ZM162.044 109.288H159.612V104.104H154.236V109.288H151.804V97.16H154.236V102.024H159.612V97.16H162.044V109.288ZM172.836 99.24H166.356V102.008H171.988V104.088H166.356V107.208H172.836V109.288H163.924V97.16H172.836V99.24ZM179.945 103.56C180.511 103.56 180.959 103.368 181.289 102.984C181.631 102.589 181.801 102.061 181.801 101.4C181.801 100.963 181.727 100.584 181.577 100.264C181.428 99.9333 181.209 99.6827 180.921 99.512C180.644 99.3307 180.319 99.24 179.945 99.24H177.001V103.56H179.945ZM181.801 109.288L179.113 105.64H177.001V109.288H174.569V97.16H180.473C181.199 97.16 181.844 97.336 182.409 97.688C182.985 98.04 183.433 98.5307 183.753 99.16C184.073 99.7893 184.233 100.504 184.233 101.304C184.233 101.827 184.164 102.317 184.025 102.776C183.887 103.224 183.636 103.656 183.273 104.072C182.921 104.477 182.436 104.856 181.817 105.208L184.809 109.288H181.801ZM194.977 99.24H188.497V102.008H194.129V104.088H188.497V107.208H194.977V109.288H186.065V97.16H194.977V99.24Z" fill="#FFD74A"/>
<path d="M86.64 55.416C86.64 56.184 86.4587 56.872 86.096 57.48C85.744 58.0773 85.2533 58.5467 84.624 58.888C83.9947 59.2293 83.2747 59.4 82.464 59.4C81.6533 59.4 80.8853 59.1867 80.16 58.76C79.4453 58.3227 78.928 57.7573 78.608 57.064L80.768 55.992C80.9387 56.376 81.184 56.6907 81.504 56.936C81.8347 57.1707 82.1707 57.288 82.512 57.288C82.8427 57.288 83.136 57.208 83.392 57.048C83.648 56.888 83.8453 56.664 83.984 56.376C84.1333 56.088 84.208 55.7573 84.208 55.384V47.16H86.64V55.416ZM94.2264 57.304C94.9837 57.304 95.6397 57.1387 96.1944 56.808C96.7597 56.4773 97.1917 56.008 97.4904 55.4C97.789 54.7813 97.9384 54.056 97.9384 53.224C97.9384 52.392 97.789 51.672 97.4904 51.064C97.1917 50.4453 96.7597 49.9707 96.1944 49.64C95.6397 49.3093 94.9837 49.144 94.2264 49.144C93.469 49.144 92.8077 49.3093 92.2424 49.64C91.6877 49.9707 91.261 50.4453 90.9624 51.064C90.6637 51.672 90.5144 52.392 90.5144 53.224C90.5144 54.056 90.6637 54.7813 90.9624 55.4C91.261 56.008 91.6877 56.4773 92.2424 56.808C92.8077 57.1387 93.469 57.304 94.2264 57.304ZM94.2264 47.032C95.4104 47.032 96.4664 47.2987 97.3944 47.832C98.333 48.3547 99.0637 49.0853 99.5864 50.024C100.109 50.9627 100.37 52.0293 100.37 53.224C100.37 54.4187 100.109 55.4853 99.5864 56.424C99.0637 57.3627 98.333 58.0987 97.3944 58.632C96.4664 59.1547 95.4104 59.416 94.2264 59.416C93.0424 59.416 91.981 59.1547 91.0424 58.632C90.1144 58.0987 89.389 57.3627 88.8664 56.424C88.3437 55.4853 88.0824 54.4187 88.0824 53.224C88.0824 52.0293 88.3437 50.9627 88.8664 50.024C89.389 49.0853 90.1144 48.3547 91.0424 47.832C91.981 47.2987 93.0424 47.032 94.2264 47.032ZM104.298 47.16V59.288H101.866V47.16H104.298ZM117.138 59.288H114.386L108.61 50.936V59.288H106.178V47.16H108.93L114.706 55.56V47.16H117.138V59.288Z" fill="#FFD74A"/>
<path d="M46.8156 157.824C46.8583 158.091 46.853 158.533 46.7996 159.152C46.6183 160.816 46.0263 162.112 45.0236 163.04C44.0316 163.957 42.693 164.416 41.0076 164.416C39.8236 164.416 38.7623 164.155 37.8236 163.632C36.8956 163.099 36.1703 162.363 35.6476 161.424C35.125 160.485 34.8636 159.419 34.8636 158.224C34.8636 157.029 35.125 155.963 35.6476 155.024C36.1703 154.085 36.8956 153.355 37.8236 152.832C38.7623 152.309 39.8236 152.048 41.0076 152.048C42.2663 152.048 43.3436 152.331 44.2396 152.896C45.1356 153.461 45.8023 154.149 46.2396 154.96L44.2076 156.096C43.9196 155.552 43.4983 155.093 42.9436 154.72C42.389 154.347 41.7383 154.16 40.9916 154.16C40.245 154.16 39.589 154.325 39.0236 154.656C38.469 154.987 38.0423 155.461 37.7436 156.08C37.445 156.688 37.2956 157.403 37.2956 158.224C37.2956 159.056 37.445 159.781 37.7436 160.4C38.0423 161.008 38.469 161.477 39.0236 161.808C39.589 162.139 40.245 162.304 40.9916 162.304C41.5356 162.304 42.0583 162.219 42.5596 162.048C43.0716 161.877 43.4983 161.6 43.8396 161.216C44.181 160.832 44.357 160.341 44.3676 159.744H41.3116V157.824H46.8156ZM53.7891 158.56C54.3545 158.56 54.8025 158.368 55.1331 157.984C55.4745 157.589 55.6451 157.061 55.6451 156.4C55.6451 155.963 55.5705 155.584 55.4211 155.264C55.2718 154.933 55.0531 154.683 54.7651 154.512C54.4878 154.331 54.1625 154.24 53.7891 154.24H50.8451V158.56H53.7891ZM55.6451 164.288L52.9571 160.64H50.8451V164.288H48.4131V152.16H54.3171C55.0425 152.16 55.6878 152.336 56.2531 152.688C56.8291 153.04 57.2771 153.531 57.5971 154.16C57.9171 154.789 58.0771 155.504 58.0771 156.304C58.0771 156.827 58.0078 157.317 57.8691 157.776C57.7305 158.224 57.4798 158.656 57.1171 159.072C56.7651 159.477 56.2798 159.856 55.6611 160.208L58.6531 164.288H55.6451ZM65.1639 162.304C65.9212 162.304 66.5772 162.139 67.1319 161.808C67.6972 161.477 68.1292 161.008 68.4279 160.4C68.7265 159.781 68.8759 159.056 68.8759 158.224C68.8759 157.392 68.7265 156.672 68.4279 156.064C68.1292 155.445 67.6972 154.971 67.1319 154.64C66.5772 154.309 65.9212 154.144 65.1639 154.144C64.4065 154.144 63.7452 154.309 63.1799 154.64C62.6252 154.971 62.1985 155.445 61.8999 156.064C61.6012 156.672 61.4519 157.392 61.4519 158.224C61.4519 159.056 61.6012 159.781 61.8999 160.4C62.1985 161.008 62.6252 161.477 63.1799 161.808C63.7452 162.139 64.4065 162.304 65.1639 162.304ZM65.1639 152.032C66.3479 152.032 67.4039 152.299 68.3319 152.832C69.2705 153.355 70.0012 154.085 70.5239 155.024C71.0465 155.963 71.3079 157.029 71.3079 158.224C71.3079 159.419 71.0465 160.485 70.5239 161.424C70.0012 162.363 69.2705 163.099 68.3319 163.632C67.4039 164.155 66.3479 164.416 65.1639 164.416C63.9799 164.416 62.9185 164.155 61.9799 163.632C61.0519 163.099 60.3265 162.363 59.8039 161.424C59.2812 160.485 59.0199 159.419 59.0199 158.224C59.0199 157.029 59.2812 155.963 59.8039 155.024C60.3265 154.085 61.0519 153.355 61.9799 152.832C62.9185 152.299 63.9799 152.032 65.1639 152.032ZM77.8159 164.4C76.8132 164.4 75.9172 164.187 75.1279 163.76C74.3492 163.333 73.7412 162.741 73.3039 161.984C72.8665 161.227 72.6479 160.363 72.6479 159.392V152.16H75.0799V159.36C75.0799 159.925 75.1919 160.416 75.4159 160.832C75.6399 161.248 75.9545 161.568 76.3599 161.792C76.7759 162.016 77.2612 162.128 77.8159 162.128C78.3705 162.128 78.8505 162.016 79.2559 161.792C79.6719 161.568 79.9919 161.248 80.2159 160.832C80.4399 160.416 80.5519 159.925 80.5519 159.36V152.16H82.9839V159.392C82.9839 160.363 82.7652 161.227 82.3279 161.984C81.8905 162.741 81.2772 163.333 80.4879 163.76C79.7092 164.187 78.8185 164.4 77.8159 164.4ZM90.0986 158.56C90.4826 158.56 90.8133 158.475 91.0906 158.304C91.3786 158.123 91.5973 157.872 91.7466 157.552C91.896 157.221 91.9706 156.837 91.9706 156.4C91.9706 155.739 91.8 155.216 91.4586 154.832C91.128 154.437 90.6746 154.24 90.0986 154.24H87.2666V158.56H90.0986ZM90.1786 152.16C91 152.16 91.7306 152.341 92.3706 152.704C93.0106 153.056 93.5066 153.557 93.8586 154.208C94.2213 154.848 94.4026 155.579 94.4026 156.4C94.4026 157.221 94.2213 157.957 93.8586 158.608C93.5066 159.248 93.0106 159.749 92.3706 160.112C91.7306 160.464 91 160.64 90.1786 160.64H87.2666V164.288H84.8346V152.16H90.1786ZM99.5534 152.16H101.985V157.04H105.025C105.409 157.04 105.809 157.125 106.225 157.296C106.652 157.456 107.036 157.659 107.377 157.904L107.425 157.936C107.863 158.224 108.22 158.629 108.497 159.152C108.785 159.675 108.929 160.203 108.929 160.736C108.929 161.419 108.785 162.032 108.497 162.576C108.22 163.109 107.825 163.531 107.313 163.84C106.812 164.139 106.241 164.288 105.601 164.288H99.5534V152.16ZM105.153 162.208C105.569 162.208 105.895 162.08 106.129 161.824C106.375 161.557 106.497 161.195 106.497 160.736C106.497 160.235 106.375 159.84 106.129 159.552C105.895 159.264 105.569 159.12 105.153 159.12H101.985V162.208H105.153ZM104.561 157.04C104.935 157.029 105.228 156.907 105.441 156.672C105.665 156.427 105.777 156.101 105.777 155.696C105.777 155.248 105.665 154.896 105.441 154.64C105.217 154.373 104.908 154.24 104.513 154.24H101.553V152.16H104.865C105.505 152.16 106.076 152.299 106.577 152.576C107.089 152.853 107.484 153.243 107.761 153.744C108.049 154.245 108.193 154.816 108.193 155.456C108.193 155.883 108.076 156.331 107.841 156.8C107.617 157.259 107.324 157.637 106.961 157.936L104.561 157.04ZM116.513 159.552V164.288H114.081V159.552L109.281 152.16H112.177L115.297 157.28L118.417 152.16H121.313L116.513 159.552Z" fill="#FFD74A"/>
<path d="M11.2078 237.288H8.77581V232.104H3.39981V237.288H0.967813V225.16H3.39981V230.024H8.77581V225.16H11.2078V237.288ZM25.5438 237.288H22.9198L21.6718 234.248H16.5838L15.3198 237.288H12.6798L17.7358 225.16H20.5998L25.5438 237.288ZM20.8238 232.168L19.1598 228.072L17.4478 232.168H20.8238ZM32.3044 237.288H29.4244L24.3204 225.16H26.9604L30.8324 234.696L34.4164 225.16H37.0404L32.3044 237.288ZM40.7904 225.16V237.288H38.3584V225.16H40.7904ZM53.6298 237.288H50.8778L45.1018 228.936V237.288H42.6698V225.16H45.4218L51.1978 233.56V225.16H53.6298V237.288ZM67.0266 230.824C67.0692 231.091 67.0639 231.533 67.0106 232.152C66.8292 233.816 66.2372 235.112 65.2346 236.04C64.2426 236.957 62.9039 237.416 61.2186 237.416C60.0346 237.416 58.9732 237.155 58.0346 236.632C57.1066 236.099 56.3812 235.363 55.8586 234.424C55.3359 233.485 55.0746 232.419 55.0746 231.224C55.0746 230.029 55.3359 228.963 55.8586 228.024C56.3812 227.085 57.1066 226.355 58.0346 225.832C58.9732 225.309 60.0346 225.048 61.2186 225.048C62.4772 225.048 63.5546 225.331 64.4506 225.896C65.3466 226.461 66.0132 227.149 66.4506 227.96L64.4186 229.096C64.1306 228.552 63.7092 228.093 63.1546 227.72C62.5999 227.347 61.9492 227.16 61.2026 227.16C60.4559 227.16 59.7999 227.325 59.2346 227.656C58.6799 227.987 58.2532 228.461 57.9546 229.08C57.6559 229.688 57.5066 230.403 57.5066 231.224C57.5066 232.056 57.6559 232.781 57.9546 233.4C58.2532 234.008 58.6799 234.477 59.2346 234.808C59.7999 235.139 60.4559 235.304 61.2026 235.304C61.7466 235.304 62.2692 235.219 62.7706 235.048C63.2826 234.877 63.7092 234.6 64.0506 234.216C64.3919 233.832 64.5679 233.341 64.5786 232.744H61.5226V230.824H67.0266Z" fill="#FFD74A"/>
<path d="M35.7724 32.8057C34.573 35.612 39.0676 41.8927 40.7988 43.8074C44.0502 47.4032 50.0728 51.9546 54.923 52.2353" stroke="#FFD74A" stroke-width="3" stroke-linecap="round"/>
<path d="M51.6119 43.3254C52.7267 46.6591 55.1805 49.2672 56.2851 52.5705C56.8433 54.2395 50.1752 57.4589 48.7805 58.5071" stroke="#FFD74A" stroke-width="3" stroke-linecap="round"/>
<path d="M163.543 131.806C164.743 134.612 160.248 140.893 158.517 142.807C155.266 146.403 149.243 150.955 144.393 151.235" stroke="#FFD74A" stroke-width="3" stroke-linecap="round"/>
<path d="M147.704 142.325C146.589 145.659 144.135 148.267 143.031 151.571C142.473 153.24 149.141 156.459 150.535 157.507" stroke="#FFD74A" stroke-width="3" stroke-linecap="round"/>
<path d="M143.21 55.3681C146.016 54.1686 152.297 58.6632 154.212 60.3944C157.808 63.6458 162.359 69.6684 162.64 74.5186" stroke="#FFD74A" stroke-width="3" stroke-linecap="round"/>
<path d="M153.73 71.2075C157.063 72.3223 159.672 74.7761 162.975 75.8808C164.644 76.4389 167.863 69.7708 168.911 68.3761" stroke="#FFD74A" stroke-width="3" stroke-linecap="round"/>
<path d="M21.7198 178.237C18.8873 179.373 17.6244 186.993 17.4946 189.571C17.251 194.412 18.2913 201.889 21.5225 205.517" stroke="#FFD74A" stroke-width="3" stroke-linecap="round"/>
<path d="M25.4814 196.876C23.9124 200.022 23.8033 203.601 22.2486 206.718C21.4631 208.293 14.4717 205.854 12.7443 205.609" stroke="#FFD74A" stroke-width="3" stroke-linecap="round"/>
<path d="M30.9304 264.389C30.6745 267.43 36.9167 271.979 39.1623 273.251C43.3797 275.642 50.5283 278.068 55.2206 276.808" stroke="#FFD74A" stroke-width="3" stroke-linecap="round"/>
<path d="M49.2748 269.392C51.3817 272.206 54.5314 273.91 56.6191 276.698C57.6739 278.107 52.357 283.26 51.3628 284.694" stroke="#FFD74A" stroke-width="3" stroke-linecap="round"/>
<path d="M159.55 295.958C162.593 295.728 167.089 302.008 168.343 304.264C170.698 308.501 173.064 315.67 171.766 320.351" stroke="#FFD74A" stroke-width="3" stroke-linecap="round"/>
<path d="M164.399 314.344C167.196 316.474 168.873 319.638 171.644 321.749C173.044 322.816 178.241 317.542 179.683 316.56" stroke="#FFD74A" stroke-width="3" stroke-linecap="round"/>
<path d="M59.8606 370.045C56.9521 369.121 51.1322 374.198 49.3928 376.105C46.126 379.687 42.1743 386.119 42.361 390.974" stroke="#FFD74A" stroke-width="3" stroke-linecap="round"/>
<path d="M50.9115 386.822C47.7003 388.252 45.34 390.945 42.1581 392.362C40.5504 393.078 36.7053 386.75 35.528 385.462" stroke="#FFD74A" stroke-width="3" stroke-linecap="round"/>
<path d="M79.1021 279.784C79.4647 280.221 79.8914 280.579 80.3821 280.856C80.8727 281.133 81.3261 281.277 81.7421 281.288C82.1687 281.288 82.5527 281.224 82.8941 281.096C83.2354 280.968 83.5021 280.781 83.6941 280.536C83.8967 280.291 83.9981 280.013 83.9981 279.704C83.9981 279.448 83.9021 279.229 83.7101 279.048C83.5181 278.867 83.2674 278.723 82.9581 278.616C82.6594 278.499 82.2434 278.365 81.7101 278.216C80.8781 277.981 80.1901 277.747 79.6461 277.512C79.1127 277.267 78.6541 276.904 78.2701 276.424C77.8967 275.944 77.7154 275.309 77.7261 274.52C77.7367 273.848 77.9287 273.256 78.3021 272.744C78.6754 272.221 79.1874 271.821 79.8381 271.544C80.4994 271.267 81.2461 271.133 82.0781 271.144C82.7821 271.165 83.4967 271.352 84.2221 271.704C84.9474 272.045 85.5341 272.493 85.9821 273.048L84.2061 274.456C83.9181 274.093 83.5714 273.8 83.1661 273.576C82.7607 273.341 82.3874 273.219 82.0461 273.208C81.4914 273.197 81.0381 273.32 80.6861 273.576C80.3341 273.832 80.1581 274.163 80.1581 274.568C80.1581 274.835 80.2541 275.064 80.4461 275.256C80.6487 275.437 80.9047 275.592 81.2141 275.72C81.5341 275.848 81.9661 275.997 82.5101 276.168C83.3314 276.424 84.0034 276.675 84.5261 276.92C85.0594 277.165 85.5127 277.517 85.8861 277.976C86.2594 278.435 86.4407 279.027 86.4301 279.752C86.4194 280.467 86.2114 281.101 85.8061 281.656C85.4007 282.2 84.8407 282.621 84.1261 282.92C83.4114 283.219 82.6061 283.363 81.7101 283.352C80.9207 283.331 80.1154 283.123 79.2941 282.728C78.4727 282.333 77.8007 281.827 77.2781 281.208L79.1021 279.784ZM96.9534 273.24H90.4734V276.008H96.1054V278.088H90.4734V281.208H96.9534V283.288H88.0414V271.16H96.9534V273.24ZM101.087 281.208H106.703V283.288H98.6546V271.16H101.087V281.208ZM116.688 273.24H110.208V276.008H115.84V278.088H110.208V281.208H116.688V283.288H107.776V271.16H116.688V273.24ZM123.776 283.416C122.614 283.416 121.579 283.155 120.672 282.632C119.766 282.099 119.056 281.363 118.544 280.424C118.043 279.485 117.792 278.419 117.792 277.224C117.792 276.019 118.043 274.947 118.544 274.008C119.056 273.069 119.766 272.339 120.672 271.816C121.579 271.293 122.614 271.032 123.776 271.032C124.587 271.032 125.355 271.192 126.08 271.512C126.806 271.832 127.446 272.275 128 272.84L126.448 274.552C126.16 274.125 125.771 273.784 125.28 273.528C124.8 273.272 124.294 273.144 123.76 273.144C123.046 273.144 122.422 273.309 121.888 273.64C121.355 273.96 120.944 274.429 120.656 275.048C120.368 275.667 120.224 276.392 120.224 277.224C120.224 278.056 120.368 278.781 120.656 279.4C120.944 280.008 121.355 280.477 121.888 280.808C122.422 281.139 123.046 281.304 123.76 281.304C124.347 281.304 124.854 281.181 125.28 280.936C125.718 280.68 126.07 280.365 126.336 279.992L128 281.608C127.424 282.205 126.795 282.659 126.112 282.968C125.43 283.277 124.651 283.427 123.776 283.416ZM137.956 273.24H134.628V283.288H132.196V273.24H128.804V271.16H137.956V273.24Z" fill="#FFD74A"/>
<path d="M93.1951 361.304C93.9525 361.304 94.6085 361.139 95.1631 360.808C95.7285 360.477 96.1605 360.008 96.4591 359.4C96.7578 358.781 96.9071 358.056 96.9071 357.224C96.9071 356.392 96.7578 355.672 96.4591 355.064C96.1605 354.445 95.7285 353.971 95.1631 353.64C94.6085 353.309 93.9525 353.144 93.1951 353.144C92.4378 353.144 91.7765 353.309 91.2111 353.64C90.6565 353.971 90.2298 354.445 89.9311 355.064C89.6325 355.672 89.4831 356.392 89.4831 357.224C89.4831 358.056 89.6325 358.781 89.9311 359.4C90.2298 360.008 90.6565 360.477 91.2111 360.808C91.7765 361.139 92.4378 361.304 93.1951 361.304ZM93.1951 351.032C94.3791 351.032 95.4351 351.299 96.3631 351.832C97.3018 352.355 98.0325 353.085 98.5551 354.024C99.0778 354.963 99.3391 356.029 99.3391 357.224C99.3391 358.419 99.0778 359.485 98.5551 360.424C98.0325 361.363 97.3018 362.099 96.3631 362.632C95.4351 363.155 94.3791 363.416 93.1951 363.416C92.0111 363.416 90.9498 363.155 90.0111 362.632C89.0831 362.099 88.3578 361.363 87.8351 360.424C87.3125 359.485 87.0511 358.419 87.0511 357.224C87.0511 356.029 87.3125 354.963 87.8351 354.024C88.3578 353.085 89.0831 352.355 90.0111 351.832C90.9498 351.299 92.0111 351.032 93.1951 351.032ZM106.195 357.56C106.761 357.56 107.209 357.368 107.539 356.984C107.881 356.589 108.051 356.061 108.051 355.4C108.051 354.963 107.977 354.584 107.827 354.264C107.678 353.933 107.459 353.683 107.171 353.512C106.894 353.331 106.569 353.24 106.195 353.24H103.251V357.56H106.195ZM108.051 363.288L105.363 359.64H103.251V363.288H100.819V351.16H106.723C107.449 351.16 108.094 351.336 108.659 351.688C109.235 352.04 109.683 352.531 110.003 353.16C110.323 353.789 110.483 354.504 110.483 355.304C110.483 355.827 110.414 356.317 110.275 356.776C110.137 357.224 109.886 357.656 109.523 358.072C109.171 358.477 108.686 358.856 108.067 359.208L111.059 363.288H108.051ZM116.859 361.176C117.606 361.176 118.251 361.016 118.795 360.696C119.35 360.376 119.776 359.917 120.075 359.32C120.374 358.723 120.523 358.024 120.523 357.224C120.523 356.424 120.374 355.725 120.075 355.128C119.776 354.531 119.35 354.072 118.795 353.752C118.251 353.432 117.606 353.272 116.859 353.272L114.939 353.288V361.16L116.859 361.176ZM116.907 351.16C118.08 351.16 119.126 351.416 120.043 351.928C120.96 352.44 121.675 353.16 122.187 354.088C122.699 355.005 122.955 356.051 122.955 357.224C122.955 358.397 122.699 359.448 122.187 360.376C121.675 361.293 120.96 362.008 120.043 362.52C119.126 363.032 118.08 363.288 116.907 363.288H112.507V351.16H116.907ZM133.118 353.24H126.638V356.008H132.27V358.088H126.638V361.208H133.118V363.288H124.206V351.16H133.118V353.24ZM140.227 357.56C140.792 357.56 141.24 357.368 141.571 356.984C141.912 356.589 142.083 356.061 142.083 355.4C142.083 354.963 142.008 354.584 141.859 354.264C141.709 353.933 141.491 353.683 141.203 353.512C140.925 353.331 140.6 353.24 140.227 353.24H137.283V357.56H140.227ZM142.083 363.288L139.395 359.64H137.283V363.288H134.851V351.16H140.755C141.48 351.16 142.125 351.336 142.691 351.688C143.267 352.04 143.715 352.531 144.035 353.16C144.355 353.789 144.515 354.504 144.515 355.304C144.515 355.827 144.445 356.317 144.307 356.776C144.168 357.224 143.917 357.656 143.555 358.072C143.203 358.477 142.717 358.856 142.099 359.208L145.091 363.288H142.083ZM150.366 351.16H152.798V356.04H155.838C156.222 356.04 156.622 356.125 157.038 356.296C157.465 356.456 157.849 356.659 158.19 356.904L158.238 356.936C158.675 357.224 159.033 357.629 159.31 358.152C159.598 358.675 159.742 359.203 159.742 359.736C159.742 360.419 159.598 361.032 159.31 361.576C159.033 362.109 158.638 362.531 158.126 362.84C157.625 363.139 157.054 363.288 156.414 363.288H150.366V351.16ZM155.966 361.208C156.382 361.208 156.707 361.08 156.942 360.824C157.187 360.557 157.31 360.195 157.31 359.736C157.31 359.235 157.187 358.84 156.942 358.552C156.707 358.264 156.382 358.12 155.966 358.12H152.798V361.208H155.966ZM155.374 356.04C155.747 356.029 156.041 355.907 156.254 355.672C156.478 355.427 156.59 355.101 156.59 354.696C156.59 354.248 156.478 353.896 156.254 353.64C156.03 353.373 155.721 353.24 155.326 353.24H152.366V351.16H155.678C156.318 351.16 156.889 351.299 157.39 351.576C157.902 351.853 158.297 352.243 158.574 352.744C158.862 353.245 159.006 353.816 159.006 354.456C159.006 354.883 158.889 355.331 158.654 355.8C158.43 356.259 158.137 356.637 157.774 356.936L155.374 356.04ZM167.326 358.552V363.288H164.894V358.552L160.094 351.16H162.99L166.11 356.28L169.23 351.16H172.126L167.326 358.552Z" fill="#FFD74A"/>
<path d="M17.735 421.208H23.351V423.288H15.303V411.16H17.735V421.208ZM27.3608 411.16V423.288H24.9288V411.16H27.3608ZM31.7041 415.048V423.288H29.2721V411.16H32.0241L36.0561 417.144L40.0881 411.16H42.8401V423.288H40.4081V415.048L36.0561 421.08L31.7041 415.048ZM47.2514 411.16V423.288H44.8194V411.16H47.2514ZM57.9948 413.24H54.6668V423.288H52.2348V413.24H48.8428V411.16H57.9948V413.24Z" fill="#FFD74A"/>
</svg>
