<svg width="660" height="240" viewBox="0 0 660 240" fill="none" xmlns="http://www.w3.org/2000/svg">
<g clip-path="url(#clip0_19_2)">
<rect width="660" height="240" fill="white"/>
<path d="M72.9205 117.818V176H60.9886L37.8352 142.42H37.4659V176H23.4034V117.818H35.5057L58.4034 151.341H58.8864V117.818H72.9205ZM81.7628 176V117.818H122.331V129.239H95.8253V141.17H120.257V152.619H95.8253V164.58H122.331V176H81.7628ZM145.371 117.818L155.996 136.199H156.45L167.189 117.818H182.928L165.371 146.909L183.496 176H167.359L156.45 157.42H155.996L145.087 176H129.064L147.104 146.909L129.518 117.818H145.371ZM188.297 129.239V117.818H237.473V129.239H219.831V176H205.967V129.239H188.297ZM285.165 117.818H299.028V158.045C299.009 161.814 298.11 165.11 296.33 167.932C294.549 170.735 292.087 172.913 288.943 174.466C285.818 176.019 282.201 176.795 278.091 176.795C274.455 176.795 271.15 176.161 268.176 174.892C265.222 173.623 262.864 171.653 261.102 168.983C259.36 166.312 258.498 162.894 258.517 158.727H272.523C272.58 160.223 272.864 161.502 273.375 162.562C273.905 163.604 274.634 164.39 275.562 164.92C276.491 165.451 277.598 165.716 278.886 165.716C280.231 165.716 281.367 165.432 282.295 164.864C283.223 164.277 283.924 163.415 284.398 162.278C284.89 161.142 285.146 159.731 285.165 158.045V117.818ZM339.305 135.261C339.116 133.178 338.273 131.559 336.777 130.403C335.3 129.229 333.188 128.642 330.442 128.642C328.624 128.642 327.108 128.879 325.896 129.352C324.684 129.826 323.775 130.479 323.169 131.312C322.563 132.127 322.25 133.064 322.232 134.125C322.194 134.996 322.364 135.763 322.743 136.426C323.141 137.089 323.709 137.676 324.447 138.188C325.205 138.68 326.114 139.116 327.175 139.494C328.235 139.873 329.429 140.205 330.754 140.489L335.754 141.625C338.633 142.25 341.171 143.083 343.368 144.125C345.584 145.167 347.44 146.407 348.936 147.847C350.451 149.286 351.597 150.943 352.374 152.818C353.15 154.693 353.548 156.795 353.567 159.125C353.548 162.799 352.62 165.953 350.783 168.585C348.946 171.218 346.304 173.235 342.857 174.636C339.429 176.038 335.29 176.739 330.442 176.739C325.574 176.739 321.332 176.009 317.714 174.551C314.097 173.093 311.285 170.877 309.277 167.903C307.269 164.93 306.237 161.17 306.18 156.625H319.646C319.76 158.5 320.262 160.062 321.152 161.312C322.042 162.562 323.264 163.509 324.817 164.153C326.389 164.797 328.207 165.119 330.271 165.119C332.165 165.119 333.775 164.864 335.101 164.352C336.446 163.841 337.478 163.131 338.197 162.222C338.917 161.312 339.286 160.271 339.305 159.097C339.286 157.998 338.946 157.061 338.283 156.284C337.62 155.489 336.597 154.807 335.214 154.239C333.851 153.652 332.108 153.112 329.987 152.619L323.908 151.199C318.87 150.044 314.902 148.178 312.004 145.602C309.107 143.008 307.667 139.504 307.686 135.091C307.667 131.492 308.633 128.339 310.584 125.631C312.535 122.922 315.233 120.811 318.68 119.295C322.127 117.78 326.057 117.023 330.47 117.023C334.978 117.023 338.889 117.79 342.203 119.324C345.536 120.839 348.122 122.97 349.959 125.716C351.796 128.462 352.733 131.644 352.771 135.261H339.305Z" fill="black"/>
<path d="M643.506 258.49C647.199 254.796 649.363 250.16 652.478 246.008C656.407 240.769 660.919 235.466 664.521 230.064C665.924 227.96 671.549 223.384 674.224 223.384" stroke="black" stroke-width="50" stroke-linecap="round"/>
<path d="M446.469 142.327C446.469 143.136 446.423 143.711 446.883 144.401M454.559 142.327C455.734 142.327 456.544 142.125 457.625 141.751C458.577 141.421 459.834 140.875 460.783 140.875M512.854 145.854C512.8 145.314 512.402 145.114 512.139 144.701C511.734 144.064 511.593 143.419 511.079 142.788C510.175 141.677 509.899 140.308 509.12 139.054C508.582 138.187 508.29 136.707 508.29 135.688C508.29 134.731 508.338 133.212 508.071 132.277C507.9 131.678 508.042 130.775 507.771 130.179C507.411 129.386 507.105 128.577 506.63 127.851C505.421 126.002 503.756 123.817 503.311 121.593C502.997 120.024 502.073 117.87 502.804 116.199C504.085 113.271 507.18 111.281 509.373 109.088C509.785 108.676 511.356 107.398 511.356 106.76C511.356 106.385 509.715 107.665 509.581 107.774C507.719 109.297 506.215 111.278 504.141 112.546C503.056 113.209 500.822 115.135 500.822 116.603M508.497 106.645C508.497 105.295 509.283 103.951 509.961 102.807C510.351 102.148 510.628 101.313 511.079 100.732C511.75 99.869 512.695 98.7906 513.107 97.6781C514.236 94.6324 515.758 92.156 515.758 88.7921C515.758 87.3841 516.29 85.2816 517.003 84.0783C518.42 81.687 518.715 78.6463 520.368 76.3564C522.388 73.5593 524.191 70.3989 525.612 67.2399C526.201 65.9311 526.668 64.2494 527.572 63.1945C528.82 61.7384 531.296 61.105 533.023 60.5437C536.942 59.2702 541.232 59.2902 545.113 57.9967C547.847 57.0855 550.512 57.1824 553.354 56.9018C555.665 56.6735 558.024 57.0338 560.315 57.3167C562.312 57.5633 564.4 57.8107 566.377 58.1926C568.193 58.5435 570.044 59.0798 571.863 59.3336C573.31 59.5354 574.29 60.1448 575.609 60.682C578.908 62.0261 581.693 64.306 584.864 65.8914C587.583 67.2513 590.19 69.3611 593.093 70.2941C594.318 70.6881 595.699 70.3289 596.988 70.8012C597.961 71.1573 599.18 71.5194 599.777 72.4147M574.675 58.5154C576.417 58.6737 577.918 60.5186 579.55 61.1201C581.172 61.7176 582.736 63.4516 584.218 64.3702C586.897 66.0306 589.905 67.064 592.724 68.4732C593.643 68.9328 594.668 69.2147 595.421 69.9254C595.799 70.2826 595.978 70.6897 596.354 71.0664C597.497 72.2089 598.556 73.4494 599.869 74.4433C600.933 75.248 601.575 76.2528 602.589 77.0826C602.83 77.2791 603.243 77.5524 603.662 77.8298M603.662 77.8298C604.558 78.4224 605.484 79.0344 604.825 78.9612C604.382 78.9119 603.99 78.4348 603.662 77.8298ZM603.662 77.8298C603.19 76.9604 602.851 75.8268 602.682 75.3192M602.682 73.6595C602.154 73.1843 601.356 73.2294 600.861 72.7836C600.52 72.4769 600.199 72.2569 599.777 72.0459C598.835 71.575 596.808 70.7666 596.458 69.7179M592.516 66.606C592.445 65.9611 590.287 64.6703 589.612 64.3701C589.115 64.1491 588.351 63.7995 587.837 63.7017C587.433 63.6246 585.824 63.3857 585.67 63.0793M591.064 66.606C592.476 67.3117 593.84 68.2287 595.317 68.7728C596.531 69.22 598.088 69.1842 599.155 69.7179M599.155 69.9254C600.182 70.0395 601.294 71.4928 601.748 72.3111C601.953 72.6796 602.185 73.1359 602.278 73.5558C602.408 74.1386 602.817 74.3215 603.05 74.789C604.194 77.0761 605.509 79.4239 606.37 81.9116C607.159 84.1929 608.563 86.7929 608.698 89.2186C608.734 89.8674 608.86 90.3059 609.067 90.9244C609.272 91.541 609.8 92.2598 609.931 92.8491C610.301 94.5147 611.093 96.4451 611.187 98.1392C611.22 98.7323 611.59 99.5806 611.764 100.168C611.996 100.953 612.139 102.026 612.236 102.853C612.431 104.51 612.847 106.181 612.847 107.843C612.847 109.555 613.262 111.235 613.262 112.972C613.262 114.836 613.127 116.683 612.801 118.516C612.312 121.267 611.618 123.953 610.98 126.664C610.616 128.21 610.02 129.418 609.482 130.871C608.951 132.303 607.908 133.929 607.13 135.262C606.697 136.004 606.209 136.725 605.586 137.348C604.866 138.068 604.202 139.181 603.304 139.63M601.852 140.667C601.852 141.429 600.317 141.824 599.823 142.373C599.22 143.044 598.05 143.074 597.242 143.572C595.102 144.888 592.63 145.797 590.442 146.891C589.268 146.891 588.196 147.199 587.007 147.294C584.911 147.462 582.601 147.587 580.703 148.654C579.793 149.166 578.13 149.795 577.061 149.795C575.932 149.795 574.506 150.152 573.384 150.371C572.169 150.609 570.925 150.892 569.696 151.028C565.845 151.456 561.763 151.04 557.895 151.04C554.708 151.04 551.637 151.175 548.536 150.314C544.143 149.094 539.082 149.892 534.856 148.043C533.603 147.495 532.067 147.21 530.741 146.891C529.976 146.707 529.217 146.228 528.517 146.073C527.09 145.756 526.008 145.231 524.471 145.231C522.804 145.231 521.171 144.816 519.492 144.816C518.736 144.816 518.686 145.276 519.101 145.957C519.747 147.02 520.589 147.306 521.728 147.306C522.97 147.306 525.627 147.112 526.546 147.928C526.859 148.206 527.7 148.55 528.113 148.55C528.889 148.55 529.484 149.115 530.234 149.173C531.034 149.234 531.846 149.726 532.643 149.899C533.406 150.065 534.227 150.182 535.005 150.21C535.513 150.228 535.994 150.513 536.504 150.579C537.318 150.684 538.162 150.625 538.982 150.625C540.03 150.625 541.02 150.652 542.059 150.786C543.024 150.911 544.035 150.832 545.009 150.832C546.739 150.832 548.473 151.104 550.196 151.247M570.111 144.194C570.009 143.92 569.374 143.851 569.132 143.768C567 143.037 564.607 142.887 562.412 142.384C558.339 141.451 554.28 140.406 550.288 139.169C546.487 137.991 542.488 136.849 539.039 134.812C534.04 131.86 530.401 127.724 526.684 123.379C525.83 122.38 522.816 118.509 525.393 117.478C526.541 117.019 527.64 117.237 528.645 117.827M528.645 117.827C530.735 119.054 532.416 121.889 533.277 123.575C533.656 124.319 534.393 125.897 533.922 126.791C533.421 127.743 531.82 125.871 531.64 125.615C530.017 123.319 528.986 120.6 528.645 117.827ZM528.645 117.827C528.11 113.475 529.273 108.988 532.516 105.78C532.69 105.608 532.866 105.44 533.046 105.276M533.046 105.276C538.266 100.5 545.786 98.9801 552.558 97.9316C552.772 97.8985 553.629 97.6984 554.539 97.562M533.046 105.276C535.155 107.844 537.908 109.851 540.837 111.462C543.868 113.13 548.114 114.816 551.118 112.154C553.524 110.021 554.98 106.778 555.957 103.641M533.046 105.276C532.251 104.309 531.547 103.262 530.96 102.127C528.77 97.8921 528.29 92.5494 529.485 87.9393C530.449 84.2218 532.595 81.8408 535.348 80.3055M554.539 97.562C555.519 97.4149 556.562 97.3419 556.926 97.632C557.612 98.1766 556.678 101.057 556.592 101.389C556.404 102.122 556.195 102.878 555.957 103.641M554.539 97.562C554.505 98.2114 554.52 98.895 554.587 99.6143C554.711 100.946 554.755 102.957 555.957 103.641M554.539 97.562C555.085 86.9525 568.498 85.465 577.49 86.091M555.957 103.641C556.223 103.792 556.545 103.879 556.938 103.879C559.283 103.879 561.751 102.842 563.865 101.942C567.599 100.354 571.116 98.1038 573.615 94.8429C575.442 92.4586 576.987 89.2777 577.49 86.091M535.348 80.3055C539.555 77.9585 545.177 77.5878 550.15 77.4398C550.762 77.4215 554.052 76.9256 554.299 78.0045C554.787 80.1394 553.481 82.9822 552.478 84.7468C550.268 88.6348 542.832 94.7282 538.325 90.6016C536.439 88.875 535.441 86.3991 535.144 83.9054C534.987 82.5942 535.058 81.3901 535.348 80.3055ZM535.348 80.3055C536.002 77.8574 537.777 76.0177 540.595 74.9273C547.175 72.3813 555.314 73.0889 562.136 73.9822C567.417 74.6738 576.385 75.4589 577.511 82.096C577.73 83.3886 577.704 84.7403 577.49 86.091M577.49 86.091C577.85 86.1161 578.203 86.1445 578.548 86.1759C582.328 86.52 588.078 86.941 589.462 91.2585C591.053 96.2209 589.528 102.52 587.237 107.148M587.237 107.148C587.091 107.444 586.941 107.734 586.788 108.016C586.602 108.362 586.406 108.701 586.203 109.035M587.237 107.148C586.841 106.552 586.363 106.013 585.774 105.561C583.754 104.012 580.955 103.619 578.502 103.441C572.332 102.993 565.758 103.829 560.107 106.426C556.304 108.173 553.152 110.913 553.503 115.404C553.66 117.399 554.595 118.769 556.207 119.578M587.237 107.148C587.61 107.709 587.91 108.319 588.161 108.953M586.203 109.035C580.43 118.515 568.127 123.196 557.387 120.037C556.961 119.912 556.567 119.759 556.207 119.578M586.203 109.035C578.955 109.388 571.671 110.305 564.833 112.361C561.468 113.373 557.785 114.832 556.512 118.412C556.369 118.814 556.268 119.203 556.207 119.578M586.203 109.035C586.856 109.003 587.509 108.976 588.161 108.953M556.207 119.578C555.656 122.947 558.243 125.258 561.283 126.722C564.712 128.372 568.598 129.368 572.501 129.818M588.161 108.953C588.442 109.665 588.661 110.406 588.851 111.14C588.904 111.344 588.956 111.55 589.007 111.759M588.161 108.953C591.073 108.851 593.972 108.831 596.827 108.858C596.858 108.858 596.89 108.858 596.923 108.858M589.007 111.759C589.959 115.666 590.518 120.354 589.462 124.232C588.189 128.91 583.358 129.922 579.089 130.076C576.942 130.153 574.719 130.074 572.501 129.818M589.007 111.759C585.704 113.118 582.508 114.755 579.654 116.856C576.16 119.429 572.593 123.239 572.301 127.805C572.254 128.545 572.311 129.224 572.501 129.818M589.007 111.759C590.94 110.963 592.91 110.262 594.868 109.618C595.108 109.539 595.969 109.17 596.923 108.858M572.501 129.818C572.839 130.879 573.597 131.672 574.929 132.069C579.241 133.356 584.959 132.794 589.197 131.539C593.873 130.155 598.042 127.266 600.976 123.379C603.301 120.3 606.019 115.431 605.563 111.37C605.326 109.261 602.493 108.844 600.017 108.803M596.923 108.858C597.612 108.856 598.769 108.782 600.017 108.803M596.923 108.858C598.244 108.425 599.744 108.1 600.017 108.803M600.017 108.803C600.075 108.955 600.077 109.154 600.008 109.411C599.328 111.926 597.962 114.061 596.158 115.865C595.474 116.549 594.44 117.048 593.669 117.686C592.78 118.421 591.671 119.204 590.649 119.714M553.722 166.184C553.722 169.148 553.366 172.378 553.734 175.324C553.874 176.444 553.93 177.488 553.93 178.631C553.93 179.595 554.227 181.145 553.722 181.997C553.381 182.572 553.496 183.394 553.411 184.037C553.259 185.197 553.221 186.393 552.985 187.54C552.631 189.258 552.393 191.14 551.429 192.646C549.082 196.312 544.333 199.106 540.03 199.584M554.137 164.524C553.115 166.682 552.59 169.259 552.259 171.578C552.151 172.335 551.648 173.026 551.648 173.871C551.648 174.854 551.699 175.81 551.487 176.764C551.087 178.563 551.44 180.809 551.44 182.677V187.241C551.44 188.054 551.158 190.937 551.855 191.286M564.095 160.375C566.203 160.623 565.755 166.061 565.755 167.394C565.755 168.885 565.765 170.341 565.559 171.785C565.419 172.762 565.025 173.686 564.913 174.69C564.775 175.94 564.718 177.13 564.718 178.401C564.718 179.742 564.456 181.361 564.971 182.619C565.898 184.882 567.027 186.954 568.037 189.165C568.48 190.137 569.55 190.782 569.858 191.816C570.05 192.461 570.277 193.076 570.48 193.729C570.737 194.557 571.264 197.36 571.978 197.717M568.244 191.701C568.712 192.59 569.281 193.439 569.696 194.352C570.163 195.379 571.244 195.962 572.025 196.726C573.689 198.354 575.406 199.849 577.418 201.036C580.271 202.72 584.129 203.589 587.422 203.941C593.312 204.569 598.802 205.217 604.134 207.882M573.016 197.095C574.475 197.36 575.874 198.239 577.372 198.535C581.864 199.425 586.525 200.026 591.087 200.414C592.487 200.533 593.964 201.35 595.305 201.751C597.829 202.505 600.589 202.829 603.05 203.733C606.086 204.848 609.454 205.139 612.536 206.234C614.177 206.818 615.778 207.454 617.457 207.928C619.322 208.456 621.393 208.821 623.174 209.588C626.09 210.844 628.893 211.921 632.036 212.55C634.987 213.14 637.881 213.445 640.853 213.852C644.736 214.384 648.255 215.998 651.941 217.206C653.552 217.735 655.04 218.273 656.412 219.292C656.492 219.352 657.651 220.248 657.461 220.307C656.918 220.474 656.15 220.33 655.582 220.33M607.868 203.733C610.9 206.462 615.737 206.097 619.52 206.534C624.005 207.051 628.877 207.788 633.247 209.012C635.793 209.725 638.434 210.138 641.026 210.672C643.321 211.144 645.413 212.489 647.572 213.368C648.484 213.74 649.365 214.272 650.281 214.602C651.104 214.898 651.272 215.085 651.894 215.558C653.755 216.972 655.037 218.964 656.942 220.33C658.365 221.349 659.693 223.108 660.639 224.471M660.639 224.471C660.652 224.489 660.664 224.507 660.677 224.525C660.895 224.84 661.464 225.289 661.587 225.597C661.615 225.666 661.581 225.362 661.553 225.309C661.368 224.959 660.984 224.704 660.639 224.471ZM660.639 224.471C660.539 224.403 660.442 224.337 660.354 224.271M649.151 213.069C650.383 213.134 651.982 214.342 652.897 215.143C653.834 215.963 654.962 216.505 655.836 217.379C656.681 218.224 657.595 219.101 658.498 219.915C659.962 221.232 661.458 223.174 663.155 224.156C663.431 224.316 663.755 224.479 664.072 224.654M664.072 224.654C664.427 224.851 664.773 225.064 665.033 225.309C665.411 225.664 664.751 225.185 664.072 224.654ZM664.072 224.654C663.695 224.359 663.312 224.049 663.097 223.856C661.877 222.763 660.777 221.582 659.628 220.433C659.272 220.078 658.551 219.387 658.487 218.877C658.455 218.62 657.864 217.383 657.864 218.255M662.428 217.425C663.033 217.501 663.201 218.67 664.088 218.67M664.088 222.404C664.362 224.048 665.156 225.648 665.54 227.279C665.851 228.599 666.208 230.103 666.785 231.325C667.839 233.557 667.193 236.503 667.626 238.885C667.936 240.588 668.01 242.437 668.03 244.187C668.062 247.03 668.86 249.81 668.86 252.646C668.86 258.01 668.445 263.31 668.445 268.667C668.445 270.977 668.03 273.252 668.03 275.559V281.425C668.03 286.812 668.598 292.172 668.652 297.549C668.685 300.783 668.86 304.011 668.86 307.241V311.863C668.86 313.601 668.445 315.273 668.445 317.003C668.445 319.951 667.615 322.787 667.615 325.716M537.334 198.754C536.46 199.541 534.884 200.283 533.761 200.622C530.085 201.73 526.192 202.145 522.408 202.8C518.756 203.432 514.433 203.339 511.021 204.874C508.63 205.95 506.097 206.769 503.726 207.929C501.581 208.977 499.635 210.343 497.502 211.409C494.827 212.747 491.88 213.39 489.227 214.717C487.264 215.698 485.168 216.285 483.2 217.218C481.987 217.792 480.701 218.115 479.477 218.659C479.077 218.836 477.375 219.72 477.587 219.085M520.945 205.393C514.835 205.393 508.617 206.374 502.631 207.571C500.27 208.044 497.918 208.673 495.474 208.712C494.522 208.727 493.066 208.757 492.212 209.231C491.161 209.815 489.733 209.956 488.593 210.383C487.131 210.932 485.655 211.67 484.225 212.354C482.056 213.393 479.772 214.066 477.702 215.351C476.743 215.946 474.743 216.441 474.106 217.425C473.752 217.972 472.917 218.262 472.446 218.716C471.325 219.797 470.3 221.059 469.381 222.312C467.6 224.741 465.796 227.449 464.736 230.276C463.173 234.444 460.783 238.738 460.783 243.357M460.161 240.453C460.161 240.941 460.003 241.558 459.849 242.02C459.573 242.848 459.746 243.927 459.746 244.798C459.746 246.059 460.038 247.134 460.172 248.336C460.381 250.217 460.505 252.162 460.794 254.041C461.126 256.194 461.079 258.319 461.302 260.495C461.536 262.789 461.59 265.334 461.244 267.629C461.079 268.72 461.173 269.93 460.898 270.995C460.58 272.226 460.568 273.936 459.953 275.052C459.48 275.908 459.538 277.622 459.538 278.624C459.538 281.031 458.884 283.317 458.547 285.678C458.006 289.468 458.702 293.434 457.867 297.191L457.853 297.256C457.091 300.682 456.256 304.441 457.348 307.875C457.835 309.404 457.673 311.447 458.455 312.854C458.765 313.412 459.92 313.269 460.414 313.269C463.03 313.269 465.724 313.462 468.32 313.108C469.031 313.011 469.585 312.672 470.257 312.439C471.667 311.95 473.17 311.831 474.636 311.61C478.517 311.023 482.246 310.107 486.185 309.904C489.371 309.74 492.418 309.104 495.543 308.498C500.808 307.476 506.069 306.652 511.402 306.077C526.59 304.441 541.992 305.234 557.249 304.971M475.927 298.125C482.131 298.125 488.336 298.049 494.542 297.989M494.542 297.989C498.971 297.946 503.4 297.911 507.829 297.918C512.542 297.924 517.63 297.535 522.282 298.54C522.347 298.554 524.638 299.245 524.08 299.577C518.388 302.962 511.565 302.736 505.339 301.329C501.667 300.499 498.048 299.37 494.542 297.989ZM494.542 297.989C494.148 297.834 493.756 297.676 493.365 297.514C489.999 296.124 486.369 294.5 483.649 291.994C478.481 287.232 481.074 278.282 482.785 272.539C483.125 271.397 483.504 270.261 483.929 269.143M483.929 269.143C484.618 267.335 485.428 265.575 486.39 263.92M483.929 269.143C485.105 269.638 486.297 270.08 487.494 270.468M483.929 269.143C477.111 266.276 470.852 261.653 467.445 255.528C464.492 250.22 462.949 242.857 467.03 237.698C473.389 229.66 485.963 228.46 495.336 227.395C498.602 227.023 501.921 226.685 505.234 226.554M486.39 263.92C486.85 263.127 487.345 262.359 487.878 261.621M486.39 263.92C486.494 266.167 486.834 268.405 487.494 270.468M486.39 263.92C486.253 260.978 486.523 258.019 487.014 255.413C487.037 255.292 487.061 255.172 487.085 255.052M487.878 261.621C489.855 258.883 492.354 256.563 495.543 254.975C496.485 254.505 497.756 254.022 499.145 253.668M487.878 261.621C488.243 263.711 488.705 265.775 489.239 267.791C489.547 268.956 489.888 270.113 490.243 271.265M487.878 261.621C487.5 259.451 487.226 257.253 487.085 255.052M499.145 253.668C501.543 253.057 504.296 252.832 506.33 253.731M499.145 253.668C499.466 254.252 499.842 254.795 500.28 255.286C501.87 257.066 504.296 257.208 506.662 256.752M499.145 253.668C497.347 250.4 497.257 245.877 497.525 242.435C497.641 240.95 497.885 239.516 498.248 238.137M506.33 253.731C507.399 254.203 508.269 254.985 508.786 256.185C508.787 256.188 508.789 256.192 508.79 256.196M506.33 253.731C505.55 248.322 503.699 242.555 499.969 238.517C499.676 238.199 499.363 237.9 499.033 237.626M506.33 253.731C506.4 254.218 506.462 254.702 506.515 255.182C506.571 255.686 506.621 256.211 506.662 256.752M508.79 256.196C509.84 258.647 509.377 261.973 508.797 264.448C508.453 265.918 507.994 267.354 507.43 268.746M508.79 256.196C509.706 255.9 510.566 255.558 511.31 255.24C515.022 253.651 518.38 251.192 520.308 247.769M508.79 256.196C508.103 256.417 507.386 256.613 506.662 256.752M507.43 268.746C507.09 269.587 506.712 270.411 506.298 271.218M507.43 268.746C506.602 269.578 505.754 270.551 505.57 271.317C505.557 271.371 505.564 271.416 505.585 271.453M507.43 268.746C508.008 268.166 508.576 267.654 508.901 267.33C511.819 264.412 515.066 261.806 518.594 259.654C519.622 259.026 520.681 258.416 521.764 257.83M506.298 271.218C506.232 271.347 506.165 271.476 506.097 271.604M506.298 271.218C507.875 270.669 509.409 269.933 510.895 269.001C515.342 266.21 518.935 262.237 521.764 257.83M506.298 271.218C506.062 271.3 505.824 271.379 505.585 271.453M506.097 271.604C505.305 273.095 504.391 274.522 503.369 275.87C502.083 277.566 496.176 284.425 493.538 280.803C492.743 279.711 492.369 278.195 491.993 276.849M506.097 271.604C506.312 271.605 506.544 271.576 506.699 271.548C507.581 271.388 510.789 270.52 511.31 270.372C516.292 268.961 521.251 267.419 526.05 265.463C534.785 261.902 542.918 257.217 549.579 250.831M506.097 271.604C505.864 271.603 505.652 271.566 505.585 271.453M491.993 276.849C491.917 276.58 491.842 276.317 491.763 276.066C491.259 274.466 490.737 272.87 490.243 271.265M491.993 276.849C494.217 278.157 496.996 278.426 499.462 277.149C501.77 275.954 503.402 274.038 504.53 271.752M491.993 276.849C490.747 276.116 489.674 275.057 488.928 273.761C488.339 272.738 487.866 271.631 487.494 270.468M490.243 271.265C492.016 271.718 493.78 272.052 495.497 272.262C498.618 272.644 501.639 272.494 504.53 271.752M490.243 271.265C489.327 271.031 488.409 270.766 487.494 270.468M487.085 255.052C486.871 251.704 486.964 248.349 487.464 245.074C488.062 241.161 489.579 236.083 494.344 235.889C495.878 235.826 497.294 236.355 498.508 237.221M487.085 255.052C488.463 248.262 492.514 242.025 498.248 238.137M498.508 237.221C498.688 237.349 498.863 237.484 499.033 237.626M498.508 237.221C498.415 237.524 498.329 237.829 498.248 238.137M498.508 237.221C499.767 233.114 502.098 229.521 505.234 226.554M499.033 237.626C498.768 237.791 498.506 237.962 498.248 238.137M499.033 237.626C499.809 237.141 500.613 236.699 501.444 236.304C506.003 234.132 512.077 232.796 517.618 233.291M506.662 256.752C507.015 261.404 506.735 267.283 504.53 271.752M504.53 271.752C504.883 271.661 505.235 271.562 505.585 271.453M517.618 233.291C518.843 233.4 520.043 233.599 521.194 233.899M517.618 233.291C517.547 233.86 517.488 234.427 517.441 234.99C517.114 238.881 516.995 244.857 520.308 247.769M517.618 233.291C517.794 231.882 518.046 230.46 518.393 229.061M521.194 233.899C522.164 234.151 523.099 234.474 523.987 234.875C529.321 237.281 528.132 244.029 526.029 249.481M521.194 233.899C520.599 232.026 519.687 230.323 518.393 229.061M521.194 233.899C522.218 237.122 522.303 240.847 521.786 243.68C521.514 245.171 521.004 246.533 520.308 247.769M526.029 249.481C525.14 251.786 524.088 253.858 523.296 255.274C522.812 256.138 522.302 256.992 521.764 257.83M526.029 249.481C529.94 249.163 534.019 246.575 536.527 244.233C537.592 243.239 538.576 242.162 539.487 241.022M526.029 249.481C524.288 249.623 522.581 249.315 521.06 248.336C520.792 248.163 520.541 247.973 520.308 247.769M521.764 257.83C530.156 253.288 540.06 250.143 549.579 250.831M505.234 226.554C506.832 226.491 508.429 226.477 510.019 226.53C512.613 226.618 515.602 226.812 517.741 228.49C517.968 228.668 518.185 228.859 518.393 229.061M505.234 226.554C506.548 225.312 508.003 224.179 509.581 223.165C514.629 219.92 520.334 217.803 526.226 216.709M518.393 229.061C519.606 224.164 521.969 219.546 526.226 216.709M526.226 216.709C528.959 216.201 531.732 215.913 534.498 215.835C534.524 215.834 534.549 215.833 534.575 215.833M526.226 216.709C526.501 216.525 526.785 216.349 527.076 216.181C529.563 214.745 532.355 213.877 535.196 213.305M534.575 215.833C539.023 215.704 547.253 215.238 547.43 221.482C547.534 225.194 546.195 229.011 544.698 232.327C543.315 235.391 541.602 238.375 539.487 241.022M534.575 215.833C533.357 222.077 534.057 229.373 535.213 234.241C535.926 237.245 537.166 239.882 539.487 241.022M534.575 215.833C534.744 214.967 534.95 214.121 535.196 213.305M539.487 241.022C540.603 241.571 541.97 241.772 543.649 241.502C552.033 240.149 559.219 231.922 563.346 225.09C563.601 224.668 563.911 224.154 564.233 223.58M535.196 213.305C536.962 212.95 538.748 212.708 540.491 212.516C545.682 211.941 551.004 211.843 556.212 212.262C558.148 212.418 560.773 212.551 562.909 213.342M535.196 213.305C536.931 207.564 540.683 203.282 547.81 203.687C553.916 204.034 560.543 207.461 562.909 213.342M562.909 213.342C563.745 213.651 564.506 214.061 565.121 214.613C567.556 216.797 565.756 220.867 564.233 223.58M562.909 213.342C562.952 213.45 562.994 213.558 563.035 213.668C564.228 216.895 564.542 220.248 564.233 223.58M564.233 223.58C563.668 229.675 561.017 235.697 557.848 240.729C555.471 244.505 552.685 247.853 549.579 250.831M549.579 250.831C550.124 250.87 550.668 250.922 551.21 250.987C553.349 251.243 556.607 251.824 557.411 254.248C558.286 256.891 557.063 260.64 556.235 263.088C555.101 266.442 553.53 269.7 551.574 272.711M551.574 272.711C548.442 277.534 544.324 281.724 539.431 284.664C539.219 284.791 539.001 284.918 538.779 285.044M551.574 272.711C546.857 271.819 541.148 272.974 537.172 274.475C532.667 276.176 528.854 279.448 526.212 283.446M551.574 272.711C552.826 272.948 554.009 273.33 555.071 273.887C559.227 276.07 552.156 281.214 550.576 282.359C548.728 283.696 546.768 284.872 544.723 285.864M538.779 285.044C534.933 287.222 529.75 289.025 525.347 288.075C523.343 287.643 525.053 285.328 525.647 284.341C525.829 284.039 526.017 283.74 526.212 283.446M538.779 285.044C534.606 284.42 530.412 283.767 526.212 283.446M538.779 285.044C540.367 285.281 541.953 285.515 543.534 285.724C543.861 285.767 544.267 285.814 544.723 285.864M526.212 283.446C524.749 283.334 523.285 283.262 521.821 283.246C520.783 283.234 516.856 282.948 517.107 284.998C517.508 288.275 523.76 289.113 526.027 289.343C532.49 289.998 538.942 288.668 544.723 285.864M544.723 285.864C548.061 286.226 554.104 286.715 551.694 286.715C549.391 286.715 547.102 286.769 544.802 286.923M464.725 311.195C464.808 311.946 466.393 312.248 466.96 312.486C468.598 313.172 470.151 313.681 471.939 313.846C473.739 314.011 475.468 314.099 477.287 314.099C477.422 314.099 477.558 314.098 477.693 314.097M477.693 314.097C480.194 314.073 482.66 313.828 485.124 313.526M477.693 314.097C477.939 314.065 478.184 314.031 478.428 313.995C479.866 313.784 481.322 313.986 482.762 313.776C483.569 313.659 484.342 313.574 485.124 313.526M477.693 314.097C475.867 314.336 473.975 314.498 472.193 314.883C469.303 315.508 466.501 316.381 463.48 316.381M485.124 313.526C488.028 313.17 490.929 312.734 493.883 312.486C498.593 312.089 503.351 310.878 508.036 310.157C509.62 309.914 511.3 309.897 512.854 309.535C515.046 309.025 517.215 308.425 519.4 307.887C524.479 306.637 529.598 306.423 534.798 306.423C540.369 306.423 546.038 306.482 551.567 307.138C561.3 308.293 570.963 310.511 580.738 311.241C587.241 311.726 593.665 313.055 600.146 313.684C603.759 314.035 607.355 314.694 610.934 315.298C614.317 315.869 617.751 316.094 621.145 316.589C626.309 317.342 631.481 318.029 636.647 318.767C641.137 319.408 645.726 319.104 650.189 319.862C652.215 320.206 654.262 320.706 656.182 321.452C656.419 321.544 659.678 323.244 658.763 323.596C657.086 324.241 654.937 324.057 653.185 324.057C650.823 324.057 648.403 324.034 646.051 323.838C640.308 323.359 634.549 322.818 628.802 322.277L628.36 322.236C625.732 321.989 623.12 321.457 620.523 320.991C617.581 320.464 614.569 320.258 611.602 319.908C609.004 319.601 606.391 319.355 603.788 319.078C600.549 318.733 597.268 318.93 594.049 318.548C590.809 318.163 587.569 318.037 584.322 317.73C580.625 317.379 576.814 316.858 573.108 316.796C569.921 316.743 566.767 316.38 563.588 316.22C560.201 316.048 556.78 316.174 553.388 316.174C545.82 316.174 538.197 315.474 530.672 314.721C525.215 314.176 519.692 314.307 514.214 314.307C505.021 314.307 495.91 313.477 486.726 313.477C486.178 313.477 485.649 313.493 485.124 313.526ZM559.946 291.279C561.922 292.674 564.895 293.046 567.207 293.515C571 294.284 574.909 294.605 578.732 295.221C589.366 296.934 599.797 299.912 610.45 301.513C614.85 302.175 619.878 302.079 624.349 301.813C625.835 301.725 627.289 301.518 628.707 301.128M628.707 301.128C629.234 300.984 629.756 300.813 630.273 300.614C631.568 300.117 633.27 299.286 634.699 299.416C635.97 299.531 637.253 299.962 638.522 300.486M628.707 301.128C630.858 301.968 633.103 302.441 635.298 301.767C636.435 301.418 637.509 300.988 638.522 300.486M628.707 301.128C626.976 300.453 625.307 299.539 623.773 298.793C618.233 296.099 612.806 293.212 607.388 290.305M638.522 300.486C640.096 301.136 641.65 301.93 643.135 302.447C644.532 302.933 645.723 303.543 646.881 304.464C647.67 305.092 648.518 305.514 649.071 306.354C649.351 306.781 650.615 308.915 651.318 308.659C652.101 308.375 652.142 303.924 652.298 303.185C653.091 299.416 655.045 296.012 655.848 292.236C656.487 289.23 656.811 286.114 657.15 283.062C657.538 279.566 658.067 276.093 657.818 272.562C657.638 269.999 656.406 267.868 655.421 265.555C655.313 265.301 655.218 265.003 655.133 264.706M638.522 300.486C650.874 294.364 654.297 277.456 654.543 264.833M655.133 264.706C654.753 263.372 654.594 262.042 654.545 264.725C654.545 264.761 654.544 264.797 654.543 264.833M655.133 264.706C655.646 264.592 656.157 264.468 656.666 264.333C656.851 264.284 663.497 262.388 662.705 261.014C662.255 260.232 660.976 260.444 660.077 260.368C658.014 260.195 653.136 260.07 651.433 260.046C649.852 260.023 648.267 260.003 646.681 259.99M655.133 264.706C654.937 264.75 654.74 264.792 654.543 264.833M654.543 264.833C649.351 265.909 643.949 265.998 638.686 265.601C636.716 265.452 634.745 265.239 632.782 264.96M607.388 290.305C603.912 288.441 600.44 286.568 596.942 284.733C596.278 284.384 584.021 278.442 584.61 277.656C584.964 277.185 585.589 276.844 586.242 276.596M607.388 290.305C608.986 290.561 610.587 290.79 612.19 290.991C619.15 291.861 626.578 292.218 633.443 290.449C634.99 290.05 639.747 288.752 639.689 286.323C639.635 284.068 634.619 282.668 632.741 282.11M607.388 290.305C598.076 288.817 588.864 286.462 579.793 283.984L579.502 283.904C573.593 282.29 567.538 280.637 561.917 278.163C560.372 277.484 559.922 276.964 561.871 276.677C566.877 275.939 572.234 276.321 577.257 276.388C580.254 276.429 583.249 276.498 586.242 276.596M586.242 276.596C586.805 276.382 587.388 276.236 587.837 276.135C588.47 275.992 589.109 275.873 589.753 275.776M586.242 276.596C587.767 276.645 589.292 276.703 590.816 276.767M589.753 275.776C595.692 274.88 602.063 275.817 607.887 276.673L608.145 276.711C612.538 277.357 616.956 278.11 621.327 279.062M589.753 275.776C589.795 275.831 589.84 275.885 589.889 275.939C590.155 276.237 590.47 276.512 590.816 276.767M589.753 275.776C588.024 273.544 591.225 270.887 592.793 269.738C595.222 267.959 597.908 266.538 600.738 265.394M621.327 279.062C625.051 279.874 628.74 280.831 632.348 281.99C632.455 282.024 632.587 282.064 632.741 282.11M621.327 279.062C618.06 278.713 614.693 278.389 611.591 278.117C604.67 277.511 597.748 277.062 590.816 276.767M621.327 279.062C622.658 279.205 623.974 279.351 625.248 279.5C626.984 279.703 629.812 279.994 631.691 280.491C633.07 280.857 633.31 281.466 632.741 282.11M632.741 282.11C632.537 282.341 632.227 282.577 631.829 282.808C628.781 284.572 624.967 285.148 621.502 285.159C615.218 285.179 608.917 283.589 602.947 281.771C599.886 280.838 597.345 279.966 594.441 278.682C593.356 278.202 591.93 277.589 590.816 276.767M600.738 265.394C601.706 265.002 602.691 264.643 603.689 264.313M600.738 265.394C604.548 266.074 608.379 266.631 612.225 267.03C617.716 267.6 623.669 268.096 628.994 266.246C629.717 265.995 630.669 265.618 631.605 265.118M600.738 265.394C595.108 264.389 589.523 263.116 583.999 261.682C579.798 260.592 575.976 259.53 571.921 258.04C569.588 257.183 567.331 256.329 565.351 254.802C558.601 249.591 571.12 243.065 574.744 241.513C578.347 239.97 582.073 238.896 585.867 238.113M603.689 264.313C608.2 262.821 612.961 261.926 617.548 261.328M603.689 264.313C608.44 264.925 613.218 265.324 617.987 265.509C622.472 265.683 627.085 265.675 631.605 265.118M603.689 264.313C598.362 263.628 593.069 262.674 587.86 261.452C585.642 260.931 581.522 259.798 579.216 258.939C578.297 258.597 576.562 257.847 575.759 257.049C574.559 255.857 575.616 254.52 576.773 253.891C581.924 251.091 589.337 251.7 594.891 251.943C600.49 252.189 606.098 252.725 611.661 253.548M617.548 261.328C618.221 261.24 618.89 261.159 619.555 261.083C624.617 260.504 629.725 260.207 634.84 260.071M617.548 261.328C617.744 261.393 617.937 261.457 618.125 261.521C622.652 263.042 627.338 264.144 632.074 264.856M617.548 261.328C614.516 260.317 610.673 259.049 608.444 256.726C606.745 254.955 608.809 254.029 611.661 253.548M634.84 260.071C638.788 259.966 642.741 259.958 646.681 259.99M634.84 260.071C633.405 257.457 626.443 256.436 624.983 256.092C620.59 255.059 616.14 254.21 611.661 253.548M634.84 260.071C635.036 260.428 635.129 260.814 635.091 261.233C634.952 262.757 633.589 263.97 632.074 264.856M646.681 259.99C647.426 259.337 647.976 258.599 648.137 257.787C648.604 255.439 641.718 254.694 640.807 254.537C634.046 253.371 627.071 253.105 620.223 253.038C619.899 253.035 615.181 252.953 611.661 253.548M646.681 259.99C644.938 261.518 642.12 262.587 640.669 263.088C638.111 263.971 635.467 264.569 632.782 264.96M632.782 264.96C632.546 264.926 632.31 264.892 632.074 264.856M632.782 264.96C632.39 265.017 631.998 265.07 631.605 265.118M632.074 264.856C631.919 264.947 631.762 265.034 631.605 265.118M585.867 238.113C586.262 238.031 586.656 237.953 587.052 237.878M585.867 238.113C586.738 238.493 587.604 238.856 588.46 239.208C588.722 239.316 588.985 239.423 589.249 239.529M585.867 238.113C581.095 236.029 576.226 233.459 572.647 229.734C571.109 228.134 569.381 225.496 570.411 223.165C571.473 220.762 574.714 219.875 577.026 219.523C583.763 218.497 590.979 219.491 597.634 220.514C607.424 222.02 617.156 224.191 626.733 226.797M587.052 237.878C587.871 237.722 588.694 237.579 589.518 237.446M587.052 237.878C587.753 238.465 588.489 239.014 589.249 239.529M587.052 237.878C586.274 237.226 585.536 236.527 584.852 235.773C583.564 234.356 581.707 231.88 583.619 230.149C586.613 227.439 592.93 227.871 596.504 227.821C598.022 227.8 599.539 227.804 601.057 227.831M589.518 237.446C592.95 236.896 596.421 236.534 599.893 236.234C610.367 235.331 620.94 235.096 631.449 235.428C632.472 235.46 640.503 234.854 640.473 237.687C640.447 240.144 637.514 242.737 635.884 244.178L635.874 244.187C635.318 244.679 634.748 245.142 634.168 245.576M589.518 237.446C589.426 238.247 589.478 238.993 589.648 239.689M589.518 237.446C589.519 237.442 589.519 237.438 589.52 237.433C589.868 234.471 592.26 231.956 594.683 230.449C596.622 229.243 598.794 228.413 601.057 227.831M634.168 245.576C631.471 247.592 628.528 248.987 625.438 249.862M634.168 245.576C634.492 245.516 634.815 245.452 635.137 245.386C640.061 244.364 644.898 242.307 648.713 238.977C649.474 238.314 650.665 237.193 651.335 235.965M634.168 245.576C627.488 246.813 620.378 246.638 613.677 245.893C605.421 244.974 597.356 242.757 589.648 239.689M625.438 249.862C620.239 251.336 614.623 251.338 609.055 250.353C603.977 249.454 598.855 247.926 594.418 245.236C592.264 243.929 590.305 242.165 589.68 239.816M625.438 249.862C629.917 249.944 634.356 249.539 638.606 248.532C642.952 247.502 647.935 245.766 651.272 242.643C652.811 241.202 654.245 238.786 652.54 236.834C652.329 236.592 652.075 236.352 651.791 236.117M625.438 249.862C615.95 249.69 606.281 247.338 597.841 243.922C595.059 242.796 592.238 241.487 589.68 239.816M589.68 239.816C589.669 239.774 589.658 239.731 589.648 239.689M589.68 239.816C589.536 239.722 589.392 239.626 589.249 239.529M589.648 239.689C589.515 239.636 589.382 239.583 589.249 239.529M601.057 227.831C604.373 226.977 607.884 226.655 611.141 226.461C616.317 226.153 621.541 226.321 626.733 226.797M601.057 227.831C610.099 227.993 619.133 228.988 628.037 230.518C635.812 231.854 643.755 233.46 651.335 235.965M626.733 226.797C630.412 227.134 634.076 227.626 637.695 228.213C640.26 228.629 644.598 229.474 647.215 230.38C648.332 230.766 650.505 231.737 651.341 232.823C652.063 233.76 651.919 234.82 651.412 235.819M626.733 226.797C629.029 227.422 631.316 228.071 633.592 228.743C637.143 229.79 643.229 231.738 646.823 233.284C648.021 233.799 649.983 234.746 651.412 235.819M651.412 235.819C651.387 235.868 651.362 235.917 651.335 235.965M651.412 235.819C651.543 235.917 651.67 236.017 651.791 236.117M651.335 235.965C651.487 236.015 651.639 236.066 651.791 236.117M651.791 236.117C654.723 237.102 657.599 238.224 660.389 239.519L660.506 239.574C663.338 240.888 668.229 243.158 667.995 247.022C667.734 251.338 661.758 253.092 658.314 253.684C656.653 253.969 654.98 254.06 653.3 254.145C652.847 254.168 651.614 254.36 652.01 254.583C653.539 255.443 655.763 256.1 657.496 256.415C658.242 256.551 656.214 255.603 655.582 255.182M504.763 130.502C504.236 130.568 503.665 131.317 503.104 131.493C501.984 131.845 501.667 132.369 500.453 132.369C499.768 132.369 498.104 130.742 498.197 130.118M498.197 130.118C498.217 129.981 498.322 129.892 498.54 129.88C498.548 129.879 498.557 129.878 498.566 129.877M498.197 130.118C498.319 130.033 498.441 129.949 498.566 129.877M498.197 130.118C497.997 130.257 497.799 130.4 497.595 130.502C496.483 131.058 495.262 131.369 494.183 131.908C493.44 132.28 492.31 132.328 491.486 132.369C490.269 132.43 488.977 132.956 487.763 133.199C485.759 133.6 483.981 134.886 482.047 135.481C481.165 135.752 480.156 136.198 479.246 136.299C478.463 136.386 477.771 136.439 477.068 136.829C475.781 137.544 474.023 137.345 472.712 138.074C472.066 138.433 470.927 137.998 470.337 138.489C470.03 138.745 468.703 139.008 468.251 139.008M498.566 129.877C498.792 129.848 499.209 129.618 498.908 129.718C498.792 129.757 498.678 129.813 498.566 129.877Z" stroke="white" stroke-width="20" stroke-linecap="round"/>
<path d="M579.51 94.346C579.606 94.4531 579.683 94.5584 579.743 94.662M579.743 94.662C581.465 97.6252 569.311 99.1523 568.921 99.2623C565.569 100.209 562.046 100.992 558.61 101.99M579.743 94.662C576.177 94.6178 572.573 95.0483 569.594 95.4385C566.787 95.8061 563.907 96.336 561.061 97.0688M579.743 94.662C583.567 94.7094 587.347 95.3028 590.268 97.0773C595.96 100.536 592.425 112.525 590.772 117.331C589.559 120.857 587.314 123.676 584.466 125.668M558.61 101.99C558.467 102.032 558.325 102.073 558.183 102.115M558.61 101.99C559.688 100.526 560.468 98.8912 561.061 97.0688M558.61 101.99C558.514 102.12 558.417 102.248 558.317 102.375M558.183 102.115C557.13 102.427 556.087 102.761 555.06 103.127M558.183 102.115C557.635 101.081 556.951 100.082 556.147 99.1363C556.027 98.9943 555.895 98.8493 555.754 98.7032M558.183 102.115C558.228 102.202 558.273 102.288 558.317 102.375M555.06 103.127C553.588 103.652 552.151 104.244 550.769 104.935C549.827 105.406 548.893 105.876 547.966 106.352M555.06 103.127C555.296 103.762 555.516 104.405 555.619 105.014M555.06 103.127C554.698 102.155 554.297 101.201 554.214 100.418C554.176 100.052 554.15 99.6869 554.137 99.3223M547.966 106.352C545.278 107.732 542.654 109.154 540.122 110.734M547.966 106.352C548.105 106.647 548.256 106.919 548.416 107.162C549.571 108.915 554.147 106.068 555.097 105.397C555.275 105.271 555.449 105.143 555.619 105.014M547.966 106.352C547.517 105.401 547.184 104.209 547.015 102.983M540.122 110.734C537.114 112.611 534.233 114.71 531.523 117.226C530.287 118.374 530.181 122.83 531.671 123.823C533.722 125.191 537.493 122.18 539.171 121.302C539.746 121.001 540.318 120.696 540.886 120.385M540.122 110.734C539.813 111.561 539.601 112.429 539.507 113.339C539.324 115.12 538.917 118.41 540.264 119.894C540.44 120.089 540.65 120.251 540.886 120.385M540.122 110.734C541.253 107.708 543.683 105.25 546.357 103.422C546.574 103.274 546.794 103.127 547.015 102.983M540.886 120.385C546.929 117.076 552.485 113.108 555.475 106.7C555.708 106.201 555.722 105.625 555.619 105.014M540.886 120.385C542.904 121.532 546.851 120.612 548.657 120.191L548.668 120.188C552.313 119.338 555.732 117.722 557.786 114.474C560.321 110.466 560.238 106.183 558.317 102.375M555.619 105.014C556.676 104.205 557.564 103.327 558.317 102.375M554.137 99.3223C554.114 98.6654 554.133 98.0118 554.198 97.3678M554.137 99.3223C551.632 100.332 549.231 101.541 547.015 102.983M554.137 99.3223C554.672 99.1069 555.211 98.9007 555.754 98.7032M554.198 97.3678C554.498 94.3651 555.781 91.5745 558.332 89.6607C559.3 88.9348 560.758 88.0138 562.051 88.3371C563.439 88.684 561.792 94.369 561.652 94.9553C561.477 95.6863 561.282 96.3905 561.061 97.0688M554.198 97.3678C551.995 95.8011 549.05 94.928 547.533 97.9177C546.877 99.2112 546.76 101.136 547.015 102.983M554.198 97.3678C554.782 97.7839 555.315 98.2488 555.754 98.7032M561.061 97.0688C559.27 97.5299 557.492 98.0714 555.754 98.7032M584.466 125.668C581.43 127.792 577.708 128.976 573.817 129.076C568.541 129.211 557.559 126.293 559.53 118.739C560.45 115.212 569.353 114.165 572.115 113.885C576.592 113.431 582.609 115.403 584.196 120.041C584.659 121.396 585.393 124.177 584.532 125.567C584.511 125.6 584.489 125.634 584.466 125.668ZM584.466 125.668C583.261 127.453 579.13 129.752 577.094 130.231C575.292 130.655 573.251 130.143 571.401 130.462C569.112 130.857 566.701 130.651 564.383 130.651M559.845 212.717C559.14 212.805 559.467 215.315 559.467 215.931C559.467 217.289 560.526 217.751 561.064 218.768C561.677 219.926 561.382 221.776 562.303 222.697C562.559 222.953 562.894 223.189 563.279 223.404M563.279 223.404C564.879 224.297 567.357 224.819 568.753 224.819C571.759 224.819 574.725 225.953 577.767 225.953C578.244 225.953 579.816 226.199 580.183 225.869C581.667 224.533 576.332 223.981 576.317 223.978C572.181 223.315 567.505 222.802 563.279 223.404ZM563.279 223.404C563.044 223.438 562.809 223.475 562.576 223.516C559.561 224.044 556.825 225.912 553.857 226.709C547.928 228.302 542.289 229.875 536.503 231.941C533.7 232.942 530.604 233.802 527.7 234.441C525.37 234.954 522.905 235.7 520.514 235.786C517.849 235.881 515.462 237.349 512.95 238.139C510.352 238.956 507.941 240.327 505.219 240.702C503.223 240.977 501.21 241.259 499.336 242.026C494.945 243.822 490.349 245.217 486.1 247.341C485.015 247.884 483.964 248.488 482.864 249.022C480.697 250.075 484.364 250.895 485.382 251.122L485.385 251.123C493.179 252.867 501.829 252.426 509.757 252.426C518.135 252.426 526.966 251.859 535.438 252.776M535.438 252.776C537.38 252.987 539.303 253.275 541.197 253.666M535.438 252.776C532.589 253.416 529.743 254.066 526.901 254.737C515.994 257.311 505.131 260.111 494.63 264.065C489.038 266.171 482.574 268.363 478.032 272.427C475.872 274.359 473.903 277.728 475.132 280.705C476.138 283.14 479.587 284.606 481.015 286.924C483.025 290.187 481.471 291.969 485.7 293.29C490.702 294.853 496.211 295.419 501.565 295.558M535.438 252.776C551.341 249.204 567.318 245.947 582.914 241.164C593.687 237.861 604.224 233.498 615.228 231.038C625.842 228.664 637.969 227.543 648.276 232.025C654.326 234.655 656.343 242.381 656.743 248.35C657.114 253.87 657.794 259.375 657.794 264.906M541.197 253.666C541.362 253.7 541.527 253.735 541.692 253.77C546.685 254.851 549.452 257.52 552.78 260.864M541.197 253.666C538.019 255.108 535.194 257.273 532.952 260.368C531.74 262.04 528.861 266.263 530.642 268.463M541.197 253.666C550.737 249.337 563.46 251.521 573.156 254.626M552.78 260.864C553.284 261.371 553.801 261.892 554.34 262.427C554.602 262.686 555.925 263.906 557.66 265.523M552.78 260.864C550.95 261.304 549.131 261.782 547.323 262.301C541.833 263.876 536.132 265.894 530.642 268.463M552.78 260.864C557.849 259.646 562.994 258.718 568.171 258.014M557.66 265.523C558.102 265.936 558.571 266.374 559.057 266.828M557.66 265.523C551.6 266.679 545.98 268.741 541.496 272.183M557.66 265.523C558.659 265.333 559.67 265.167 560.689 265.024M559.057 266.828C560.071 267.778 561.155 268.8 562.211 269.808M559.057 266.828C558.039 267.979 557.056 269.138 556.105 270.284C555.902 270.529 555.7 270.775 555.499 271.021M559.057 266.828C559.591 266.224 560.135 265.621 560.689 265.024M562.211 269.808C564.81 272.287 567.238 274.684 568.036 275.725M562.211 269.808C559.943 270.104 557.698 270.501 555.499 271.021M562.211 269.808C567.14 269.165 572.182 268.998 577.115 269.085M568.036 275.725C568.257 276.014 568.353 276.199 568.291 276.251C567.794 276.671 566.941 276.871 566.01 276.955M568.036 275.725C571.252 273.716 574.317 271.518 577.115 269.085M568.036 275.725C567.366 276.143 566.691 276.553 566.01 276.955M566.01 276.955C564.622 277.079 563.061 276.946 562.24 276.903C558.87 276.722 555.53 276.064 552.23 275.228M566.01 276.955C559.483 280.807 552.452 283.945 545.831 286.735C545.312 286.954 544.791 287.17 544.269 287.382M552.23 275.228C550.485 274.786 548.751 274.293 547.029 273.796M552.23 275.228C549.35 279.114 546.696 283.188 544.269 287.382M552.23 275.228C553.289 273.799 554.379 272.396 555.499 271.021M547.029 273.796C545.931 273.478 544.838 273.158 543.751 272.848C542.934 272.614 542.177 272.398 541.477 272.198M547.029 273.796C545.766 274.344 544.532 274.951 543.331 275.621C539.489 277.766 536.097 280.56 533.117 283.758M547.029 273.796C549.738 272.62 552.578 271.712 555.499 271.021M541.477 272.198C538.763 271.422 536.906 270.891 535.71 270.548M541.477 272.198C537.794 275.031 534.878 278.796 533.117 283.758M541.477 272.198C541.482 272.194 541.486 272.191 541.491 272.187M535.71 270.548C530.559 269.072 537.677 271.095 541.496 272.183M535.71 270.548C535.802 270.572 535.891 270.596 535.978 270.621C538.491 271.335 540.279 271.843 541.491 272.187M535.71 270.548C534.18 270.15 531.854 269.785 530.746 268.583C530.71 268.543 530.675 268.503 530.642 268.463M541.496 272.183C543.776 272.833 544.88 273.149 541.491 272.187M541.496 272.183C541.494 272.185 541.493 272.186 541.491 272.187M530.642 268.463C518.769 274.019 507.886 282.15 502.277 293.942C502.03 294.462 501.79 295.002 501.565 295.558M573.156 254.626C573.68 254.794 574.194 254.964 574.699 255.136C576.13 255.624 577.646 256.185 579.18 256.832M573.156 254.626C571.423 255.62 569.763 256.764 568.171 258.014M573.156 254.626C574.788 253.691 576.484 252.889 578.25 252.258C580.275 251.534 586.364 249.866 587.116 253.518C587.299 254.409 587.22 255.358 586.961 256.324M579.18 256.832C581.242 257.702 583.337 258.727 585.304 259.936M579.18 256.832C575.506 257.13 571.831 257.516 568.171 258.014M579.18 256.832C580.958 256.688 582.736 256.565 584.511 256.46C585.32 256.412 586.137 256.366 586.961 256.324M585.304 259.936C587.794 261.466 590.078 263.292 591.828 265.473M585.304 259.936C586.031 258.762 586.637 257.53 586.961 256.324M585.304 259.936C584.21 261.702 582.84 263.338 581.737 264.56M591.828 265.473C592.974 266.901 593.892 268.482 594.49 270.231M591.828 265.473C591.441 265.431 591.054 265.388 590.667 265.347C587.876 265.048 584.867 264.764 581.737 264.56M591.828 265.473C601.148 266.504 610.677 267.964 620.074 270.075M594.49 270.231C594.557 270.429 594.621 270.629 594.68 270.831C597.296 279.761 589.35 288.723 583.481 294.278C575.598 301.739 565.897 307.205 555.528 311.082M594.49 270.231C592.175 269.964 589.879 269.755 587.62 269.591C584.234 269.346 580.704 269.148 577.115 269.085M594.49 270.231C602.447 271.15 610.615 272.755 618.2 275.561M555.528 311.082C551.344 312.646 547.05 313.952 542.723 315.026M555.528 311.082C568.419 309.3 580.725 305.251 592.264 298.879C602.029 293.486 613.058 286.025 618.2 275.561M555.528 311.082C552.709 311.472 549.861 311.753 546.987 311.926C545.238 312.032 541.536 312.534 538.808 311.866M542.723 315.026C537.498 316.322 532.225 317.28 527.035 317.946M542.723 315.026C549.267 319.455 557.442 321.408 565.182 322.515C581.127 324.796 598.267 325.307 613.883 320.835C623.288 318.141 632.91 313.454 638.15 304.783C643.555 295.838 639.432 287.749 631.405 282.26C627.351 279.488 622.887 277.295 618.2 275.561M542.723 315.026C541.338 314.088 540.027 313.04 538.808 311.866M527.035 317.946C526.373 318.031 525.712 318.112 525.052 318.187C523.436 318.373 516.013 320.029 516.417 316.486C516.458 316.125 516.508 315.763 516.566 315.398M527.035 317.946C532.996 319.282 539.825 320.692 543.583 321.381C570.39 326.296 598.33 329.168 625.417 324.721C635.568 323.055 642.853 321.041 652.205 317.053C658.152 314.517 663.597 311.849 668.089 307.136C677.774 296.975 665.935 287.544 657.038 282.974C645.55 277.074 632.936 272.964 620.074 270.075M527.035 317.946C523.876 317.238 520.961 316.551 518.875 316.002C518.129 315.806 517.356 315.607 516.566 315.398M516.566 315.398C517.614 308.84 521.359 301.584 524.422 296.001C524.941 295.054 525.483 294.115 526.049 293.187M516.566 315.398C511.671 314.103 506.142 312.441 502.572 308.901C498.919 305.28 499.782 299.952 501.565 295.558M526.049 293.187C528.09 289.837 530.437 286.635 533.117 283.758M526.049 293.187C527.858 292.776 529.658 292.316 531.446 291.811M526.049 293.187C519.648 294.642 513.117 295.489 506.479 295.58C504.869 295.603 503.224 295.601 501.565 295.558M533.117 283.758C532.592 285.237 532.169 286.823 531.86 288.521C531.661 289.609 531.522 290.708 531.446 291.811M577.115 269.085C578.533 267.852 579.883 266.559 581.149 265.2C581.333 265.002 581.53 264.788 581.737 264.56M618.2 275.561C618.641 274.665 619.038 273.747 619.388 272.806C619.738 271.862 619.964 270.95 620.074 270.075M538.808 311.866C538.129 311.212 537.478 310.519 536.86 309.783C536.38 309.213 535.933 308.622 535.519 308.014M538.808 311.866C536.931 311.406 535.515 310.392 535.515 308.313C535.515 308.213 535.517 308.113 535.519 308.014M535.519 308.014C532.303 303.289 531.049 297.504 531.446 291.811M535.519 308.014C535.628 303.927 537.922 299.58 539.654 296.043C541.088 293.115 542.627 290.221 544.269 287.382M531.446 291.811C535.788 290.585 540.065 289.093 544.269 287.382M560.689 265.024C567.622 264.05 574.964 264.117 581.737 264.56M560.689 265.024C563.004 262.527 565.491 260.12 568.171 258.014M620.074 270.075C620.68 265.239 617.759 261.495 612.937 259.401C604.965 255.939 595.597 255.887 586.961 256.324" stroke="white" stroke-width="50" stroke-linecap="round"/>
<path d="M598.798 86.5924C598.5 86.5552 596.107 83.5982 595.857 83.1888C595.246 82.1901 594.749 80.9396 593.693 80.3524C592.51 79.6953 590.972 79.0884 589.911 78.2724C589.196 77.7223 587.8 77.3214 586.906 77.1589C586.268 77.0427 586.212 76.4538 585.562 76.3815C584.397 76.2521 582.92 75.0307 581.78 74.5746C580.519 74.0704 579.006 73.6972 577.641 73.356C575.053 72.7091 572.362 70.7088 569.762 70.7088C567.49 70.7088 565.416 69.5742 563.06 69.5742C560.314 69.5742 557.163 69.1961 554.257 69.1961C548.592 69.1961 540.375 67.9313 535.642 71.087" stroke="white" stroke-width="50" stroke-linecap="round"/>
<path d="M510.682 116.469C512.517 116.469 513.575 113.131 515.22 112.309M520.514 105.88C520.68 104.552 522.402 102.8 523.078 101.72C523.991 100.259 524.465 98.6305 525.431 97.1814M526.187 96.0469C526.187 94.4102 525.579 90.6621 526.649 89.3237C527.574 88.168 527.234 85.5018 528.834 84.7014M528.834 83.9451C529.689 83.8383 530.992 80.219 531.398 79.4069C532.31 77.5823 532.637 75.6043 534.129 74.1124C534.239 73.2349 536.629 71.2337 537.344 70.5196C538.198 69.6652 540.096 68.6077 540.558 67.6833M544.34 66.9269C544.833 66.9269 547.122 66.2853 547.365 65.9815C547.76 65.4876 549.411 65.824 550.013 65.7924C552.677 65.6521 554.991 64.7585 557.408 66.4647C559.804 68.1556 562.159 70.1032 564.762 71.5491C568.358 73.5468 572.38 76.0584 575.351 79.0287" stroke="white" stroke-width="50" stroke-linecap="round"/>
<path fill-rule="evenodd" clip-rule="evenodd" d="M542.211 47.1274C532.922 48.6743 524.48 52.2622 518.846 58.1223C515.415 61.6913 512.252 66.8742 509.948 72.5229C507.642 78.1745 506.299 84.0428 506.299 88.9082C506.299 92.9411 503.851 96.3655 501.772 98.9228C501.168 99.665 500.455 100.494 499.787 101.272C499.33 101.803 498.895 102.31 498.529 102.749C497.513 103.966 496.708 105.025 496.159 106.004C495.787 106.666 495.345 107.388 494.87 108.164C493.854 109.823 492.688 111.727 491.737 113.816C491.066 115.29 490.657 116.556 490.547 117.536C490.438 118.501 490.655 118.772 490.707 118.832C490.93 119.083 491.106 119.36 491.234 119.653C500.298 116.254 509.267 112.546 518.277 108.82C523.486 106.666 528.709 104.507 533.971 102.399C535.569 101.758 537.383 102.537 538.022 104.138C538.661 105.738 537.884 107.555 536.286 108.196C531.165 110.247 526.028 112.371 520.868 114.505C506.799 120.322 492.553 126.213 477.99 130.901C471.55 132.975 465.297 134.953 457.947 134.953C457.175 134.953 456.294 135.008 455.235 135.074C455.11 135.081 454.982 135.089 454.852 135.097C453.673 135.17 452.328 135.245 450.984 135.223C450.709 135.218 450.424 135.21 450.132 135.195C450.213 135.43 450.3 135.675 450.391 135.933C450.44 136.071 450.49 136.212 450.541 136.358C451.098 137.939 451.757 139.934 451.757 142.367C451.757 142.806 451.765 143.277 451.774 143.774C451.817 146.196 451.87 149.224 451.019 152.066C450.964 152.25 450.914 152.461 450.84 152.775C450.79 152.99 450.727 153.254 450.644 153.591C450.616 153.704 450.586 153.823 450.555 153.946C450.588 153.925 450.622 153.905 450.657 153.884C450.945 153.708 451.269 153.502 451.618 153.28C452.694 152.596 454.003 151.765 455.196 151.227C456.999 150.414 458.731 149.673 460.43 148.945C463.091 147.806 465.671 146.701 468.314 145.413C476.402 141.472 485.134 139.629 493.49 137.865C496.05 137.325 498.575 136.791 501.035 136.208C509.708 134.151 519.174 132.086 528.141 131.029C533.437 130.405 539.447 129.236 544.1 127.372C545.698 126.732 547.512 127.511 548.151 129.111C548.791 130.712 548.013 132.529 546.415 133.169C541.029 135.327 534.402 136.578 528.869 137.23C520.279 138.242 511.106 140.235 502.472 142.283C502.3 142.324 502.128 142.365 501.956 142.405C502.152 142.83 502.445 143.357 502.866 144.039C502.951 144.178 503.044 144.325 503.142 144.482C503.92 145.719 505.05 147.519 505.489 149.494C505.593 149.965 505.935 150.542 506.622 151.107C507.309 151.671 508.165 152.071 508.923 152.24C510.979 152.698 512.866 153.529 514.433 154.219C514.718 154.344 514.991 154.465 515.254 154.578C517.07 155.359 518.613 155.915 520.358 156.032C524.485 156.307 529.489 157.311 533.361 158.504C534.978 159.002 536.719 159.397 538.546 159.705C538.438 159.478 538.356 159.235 538.306 158.981C537.39 158.8 536.433 158.492 535.586 158.165C534.158 157.615 532.562 156.828 531.22 155.871C530.548 155.392 529.865 154.817 529.292 154.145C528.734 153.489 528.141 152.576 527.923 151.428C527.684 150.168 527.951 148.892 528.707 147.8C529.399 146.801 530.389 146.106 531.397 145.602C532.666 144.966 534.088 144.747 535.33 144.685C536.61 144.621 537.949 144.713 539.199 144.868C541.697 145.177 544.144 145.776 545.601 146.151C546.868 146.477 548.313 146.887 549.673 147.412C550.991 147.922 552.461 148.627 553.624 149.645C554.836 150.706 555.985 152.377 555.798 154.618C555.627 156.665 554.386 158.403 552.852 159.855C552.522 160.167 552.168 160.424 551.805 160.636C556.749 160.621 561.697 160.297 566.1 159.896C577.2 158.885 590.683 156.734 599.499 151.057C601.077 150.042 602.703 149.071 604.278 148.13C604.546 147.969 604.813 147.81 605.078 147.651C606.921 146.548 608.691 145.471 610.37 144.325C613.725 142.034 616.565 139.566 618.605 136.387C619.14 135.554 619.427 134.509 619.628 133.024C619.68 132.641 619.73 132.159 619.786 131.627C619.907 130.465 620.054 129.061 620.297 127.897C621.18 123.673 621.616 120.488 621.616 116.223V98.36C621.616 96.9619 621.315 95.5602 620.912 93.7542L620.89 93.6527C620.515 91.9738 620.058 89.9258 620.058 87.7376C620.058 85.295 619.181 82.6653 617.743 79.8554C616.569 77.5608 615.148 75.3722 613.734 73.1963C613.408 72.6948 613.083 72.194 612.761 71.6927C612.206 70.827 611.752 70.0767 611.354 69.4181C609.906 67.0238 609.191 65.8412 606.977 64.7324C603.703 63.093 600.58 60.983 597.714 59.0472C597.159 58.6725 596.614 58.3044 596.08 57.9474C589.209 53.3596 581.138 51.288 572.68 49.1174C571.536 48.8236 570.384 48.528 569.227 48.224C561.258 46.1305 551.474 45.5848 542.211 47.1274ZM542.837 155.304C543.11 155.323 543.382 155.343 543.645 155.362C543.703 155.367 543.762 155.371 543.819 155.375C544.673 155.439 545.503 155.497 546.297 155.506C547.102 155.516 547.74 155.473 548.206 155.38C548.458 155.33 548.585 155.279 548.632 155.259C549.093 154.815 549.336 154.495 549.462 154.295C549.097 153.996 548.436 153.626 547.428 153.237C546.405 152.841 545.233 152.503 544.048 152.198C542.645 151.836 540.517 151.322 538.434 151.064C537.394 150.936 536.44 150.881 535.641 150.921C535.438 150.931 535.258 150.947 535.099 150.966C535.876 151.479 536.86 151.967 537.824 152.338C538.352 152.542 538.831 152.693 539.219 152.79C539.645 152.897 539.825 152.903 539.803 152.903C541.277 152.903 542.512 153.928 542.837 155.304ZM495.808 143.764C495.286 143.876 494.765 143.986 494.247 144.095C486.065 145.827 478.374 147.455 471.041 151.027C468.305 152.361 465.43 153.594 462.636 154.792C460.964 155.509 459.321 156.214 457.754 156.92C456.995 157.263 456.273 157.721 455.349 158.309C454.917 158.583 454.441 158.886 453.896 159.218C452.427 160.113 450.436 161.22 448.205 161.468C447.179 161.583 446.214 161.184 445.565 160.477C445.188 160.569 444.784 160.62 444.355 160.62C442.816 160.62 441.541 159.847 440.771 159.285C439.905 158.655 439.102 157.859 438.424 157.1C437.091 155.606 435.884 153.84 435.334 152.738C434.415 150.897 433.738 148.226 433.36 145.495C432.974 142.713 432.854 139.563 433.223 136.672C433.576 133.903 434.448 130.795 436.552 128.717C437.67 127.612 439.101 126.84 440.809 126.605C442.473 126.377 444.191 126.687 445.902 127.372L446.417 127.579L446.829 127.95C447.487 128.543 448.788 128.942 451.087 128.98C452.163 128.998 453.291 128.938 454.47 128.866C454.598 128.858 454.727 128.85 454.857 128.842C455.877 128.778 456.967 128.71 457.947 128.71C464.193 128.71 469.575 127.053 476.083 124.957C479.151 123.97 482.2 122.93 485.235 121.848C484.305 120.22 484.176 118.405 484.353 116.837C484.57 114.907 485.282 112.948 486.066 111.226C487.182 108.774 488.774 106.168 489.836 104.429C490.216 103.807 490.528 103.296 490.726 102.943C491.567 101.446 492.675 100.028 493.746 98.7443C494.265 98.1227 494.736 97.5762 495.192 97.0475C495.777 96.3693 496.336 95.7204 496.939 94.9798C499.034 92.4038 500.065 90.5213 500.065 88.9082C500.065 83.0189 501.659 76.3352 504.177 70.1616C506.697 63.9852 510.243 58.0698 514.356 53.7917C521.228 46.6445 531.095 42.6495 541.188 40.9686C551.307 39.2835 561.979 39.8652 570.809 42.1849C571.913 42.4752 573.039 42.7626 574.181 43.0539C582.532 45.1857 591.716 47.53 599.537 52.7526C600.129 53.148 600.713 53.5421 601.292 53.9323C604.159 55.8664 606.886 57.7069 609.764 59.1481C613.726 61.132 615.453 64.0506 617.019 66.6949C617.348 67.2514 617.67 67.7957 618.005 68.3165C618.287 68.7563 618.585 69.2145 618.893 69.6886C620.314 71.8739 621.954 74.3964 623.291 77.0083C624.924 80.2004 626.291 83.8655 626.291 87.7376C626.291 89.1722 626.595 90.5966 626.996 92.3933L627.028 92.5369C627.399 94.1987 627.85 96.2196 627.85 98.36V116.223C627.85 121.032 627.342 124.659 626.399 129.176C626.212 130.068 626.135 130.839 626.044 131.754C625.983 132.366 625.916 133.042 625.805 133.862C625.564 135.645 625.124 137.776 623.849 139.763C621.171 143.934 617.574 146.962 613.88 149.484C612.035 150.744 610.126 151.903 608.276 153.01C608.001 153.175 607.728 153.338 607.456 153.501C605.877 154.444 604.353 155.355 602.87 156.309C596.317 160.529 587.85 162.951 579.701 164.413C579.027 166.282 578.545 168.763 578.407 171.356C578.244 174.401 578.576 177.199 579.318 179.058C579.522 179.569 579.582 180.101 579.517 180.61C579.519 180.625 579.52 180.639 579.522 180.653C579.625 181.58 580.124 182.85 580.986 184.389C581.384 185.099 581.814 185.791 582.249 186.462C599.847 186.52 617.045 190.694 633.801 194.76C639.036 196.031 644.228 197.291 649.376 198.412C656.354 199.931 663.957 201.99 669.827 206.078C675.923 210.323 680.054 216.695 680.054 226.263C680.054 226.423 680.042 226.58 680.019 226.734C680.367 231.609 681.452 236.564 682.598 241.802C682.707 242.299 682.816 242.799 682.925 243.301C684.195 249.134 685.452 255.303 685.452 261.505C685.452 265.792 685.226 270.038 685.005 274.195L685.002 274.253C684.779 278.456 684.561 282.57 684.561 286.71V310.212C684.561 311.305 684.691 312.832 684.855 314.773L684.874 314.998C685.04 316.972 685.228 319.255 685.275 321.514C685.321 323.756 685.236 326.124 684.801 328.256C684.377 330.333 683.537 332.62 681.725 334.22C680.434 335.36 678.464 335.236 677.326 333.943C676.188 332.649 676.312 330.677 677.603 329.537C677.93 329.248 678.382 328.533 678.693 327.006C678.994 325.534 679.085 323.697 679.043 321.645C679 319.61 678.83 317.511 678.663 315.524L678.63 315.14C678.479 313.355 678.328 311.58 678.328 310.212V286.71C678.328 282.384 678.555 278.112 678.777 273.942L678.778 273.921C679.001 269.718 679.219 265.618 679.219 261.505C679.219 256.058 678.111 250.496 676.835 244.631C676.723 244.116 676.609 243.598 676.495 243.078C675.335 237.784 674.117 232.23 673.77 226.717C673.754 226.449 673.771 226.187 673.819 225.935C673.731 218.74 670.735 214.314 666.268 211.204C661.507 207.889 654.999 206.026 648.052 204.513C642.577 203.321 637.176 202.011 631.815 200.712C615.523 196.762 599.61 192.903 583.153 192.712C583.052 192.801 582.943 192.884 582.828 192.961C581.396 193.917 579.461 193.529 578.506 192.095C578.381 191.906 578.245 191.705 578.102 191.492C577.349 190.371 576.384 188.934 575.55 187.445C574.578 185.709 573.571 183.547 573.327 181.343C573.306 181.159 573.302 180.977 573.314 180.799C572.284 177.877 572.005 174.325 572.182 171.022C572.283 169.145 572.536 167.236 572.937 165.438C570.755 165.714 568.648 165.933 566.664 166.114C560.027 166.718 551.629 167.214 543.67 166.597C543.591 167.179 543.347 167.744 542.934 168.219C542.934 168.219 542.934 168.219 542.934 168.219C542.937 168.221 542.812 168.424 542.708 169.034C542.592 169.716 542.552 170.6 542.575 171.644C542.598 172.676 542.677 173.742 542.758 174.791L542.771 174.962C542.843 175.9 542.92 176.903 542.92 177.703C542.92 178.397 542.949 179.094 542.981 179.87C542.989 180.066 542.998 180.266 543.006 180.474C543.045 181.457 543.077 182.549 543.022 183.65C542.912 185.861 542.444 188.397 540.738 190.675C539.726 192.028 537.828 192.323 536.457 191.359C527.885 192.385 519.503 194.382 510.907 196.43C506.779 197.414 502.601 198.409 498.33 199.314C483.021 202.557 467.951 208.278 458.925 220.331C458.765 220.545 458.583 220.733 458.384 220.893C458.349 220.964 458.31 221.034 458.269 221.103C457.232 222.833 455.818 225.967 454.586 228.963C453.983 230.431 453.445 231.813 453.044 232.894C452.844 233.436 452.682 233.891 452.566 234.237C452.472 234.513 452.429 234.66 452.414 234.71C452.408 234.732 452.406 234.736 452.409 234.725C451.044 241.047 450.921 247.051 450.921 253.836C450.921 256.589 450.984 259.423 451.048 262.307C451.261 271.871 451.486 281.996 449.469 291.593C449.144 293.138 448.598 299.49 448.598 305.741C448.598 308.835 448.734 311.72 449.057 313.845C449.218 314.904 449.404 315.62 449.569 316.037C450.686 316.804 451.211 318.247 450.761 319.598C450.217 321.234 448.452 322.118 446.819 321.573C444.983 320.96 444.16 319.291 443.803 318.41C443.368 317.338 443.089 316.062 442.894 314.785C442.501 312.197 442.365 308.945 442.365 305.741C442.365 299.395 442.906 292.51 443.369 290.306C445.224 281.484 445.025 272.366 444.82 262.955C444.754 259.945 444.688 256.906 444.688 253.836C444.688 247.031 444.798 240.439 446.316 233.405C446.441 232.828 446.811 231.774 447.2 230.724C447.628 229.566 448.193 228.116 448.822 226.586C450.055 223.587 451.622 220.063 452.923 217.891C453.119 217.566 453.364 217.288 453.643 217.063C453.726 216.898 453.824 216.738 453.938 216.585C464.377 202.644 481.372 196.525 497.04 193.206C500.975 192.372 504.966 191.422 508.998 190.462C518.046 188.308 527.297 186.106 536.579 185.06C536.694 184.556 536.764 183.988 536.796 183.34C536.836 182.536 536.815 181.681 536.777 180.72C536.771 180.547 536.763 180.37 536.756 180.188C536.723 179.402 536.687 178.54 536.687 177.703C536.687 177.152 536.626 176.364 536.542 175.269C536.463 174.236 536.371 173.008 536.344 171.782C536.317 170.568 536.35 169.232 536.563 167.982C536.677 167.318 536.86 166.555 537.185 165.803C535.214 165.46 533.316 165.022 531.528 164.471C528.052 163.4 523.526 162.5 519.944 162.261C517.097 162.071 514.75 161.156 512.794 160.315C512.445 160.165 512.114 160.02 511.795 159.88C510.228 159.195 508.98 158.649 507.571 158.335C505.87 157.956 504.121 157.127 502.669 155.935C501.219 154.743 499.889 153.036 499.404 150.849C499.214 149.992 498.696 149.154 497.809 147.72C497.73 147.591 497.647 147.458 497.562 147.32C497.01 146.424 496.266 145.207 495.808 143.764ZM449.695 316.298C449.694 316.3 449.68 316.281 449.655 316.232C449.683 316.271 449.695 316.295 449.695 316.298ZM443.169 133.015C443.184 133.027 443.2 133.039 443.215 133.05C443.425 134.969 444.03 136.662 444.502 137.981C444.557 138.137 444.611 138.288 444.662 138.434C445.188 139.926 445.523 141.067 445.523 142.367C445.523 143.029 445.532 143.651 445.54 144.24C445.571 146.606 445.596 148.446 445.049 150.272C444.942 150.628 444.819 151.145 444.712 151.597C444.669 151.776 444.629 151.946 444.593 152.091C444.437 152.723 444.273 153.309 444.079 153.81C444.065 153.846 444.051 153.88 444.038 153.913C443.746 153.656 443.419 153.328 443.071 152.939C442.013 151.753 441.156 150.441 440.909 149.946C440.424 148.974 439.87 147.062 439.534 144.636C439.204 142.26 439.123 139.68 439.406 137.463C439.704 135.125 440.336 133.748 440.929 133.162C441.16 132.934 441.376 132.829 441.655 132.791C441.93 132.753 442.414 132.764 443.169 133.015ZM532.012 85.0061C533.733 85.0061 535.128 86.4037 535.128 88.1278C535.128 89.3966 534.981 90.5484 534.737 91.6278C534.749 91.6873 534.76 91.7477 534.77 91.809C534.867 92.4181 534.824 92.9567 534.743 93.3992C534.67 93.7972 534.555 94.1701 534.479 94.4121C534.458 94.4795 534.438 94.5437 534.418 94.6064C534.354 94.8093 534.295 94.9966 534.229 95.2288C534.03 95.9259 533.616 96.5334 533.454 96.7686C533.23 97.094 532.974 97.4242 532.729 97.7092C532.692 97.9697 532.623 98.2559 532.504 98.5503C532.064 99.6427 531.108 100.428 529.931 100.638C529.046 100.796 528.289 100.581 527.909 100.454C526.276 99.9092 525.394 98.1413 525.938 96.5057C526.003 96.3105 526.085 96.126 526.183 95.9533C526.157 95.8521 526.131 95.7476 526.105 95.641C525.949 94.9941 525.778 94.1296 525.778 93.2005C525.778 91.8684 525.814 90.0334 527.081 88.1304C527.247 87.8801 527.476 87.5649 527.769 87.2731C527.988 87.0554 528.565 86.517 529.478 86.3097C530.043 85.5203 530.967 85.0061 532.012 85.0061ZM559.007 87.6236C558.518 86.5403 557.43 85.7865 556.166 85.7865C554.445 85.7865 553.049 87.1841 553.049 88.9082C553.049 90.4562 553.548 91.8941 554.045 93.0197C553.985 93.2955 553.951 93.5699 553.939 93.8365C553.877 94.2272 553.842 94.6359 553.83 95.0598C553.799 96.1211 553.982 97.1217 554.354 97.9908C554.696 98.7916 555.311 99.7304 556.328 100.313C556.857 100.616 557.635 100.896 558.564 100.792C559.511 100.686 560.304 100.214 560.854 99.5732C561.082 99.5168 561.298 99.4485 561.497 99.3738C562.392 99.0383 563.204 98.4889 563.847 97.8208C564.479 97.164 565.095 96.2347 565.326 95.076C565.575 93.8206 565.329 92.4463 564.427 91.284C563.445 90.0194 561.929 89.0764 560.435 88.716C560.384 88.7037 560.332 88.6918 560.279 88.6804C559.964 88.229 559.53 87.8591 559.007 87.6236Z" fill="black"/>
<path d="M10.19 238.067H26.9889" stroke="black" stroke-width="50" stroke-linecap="round"/>
<path d="M59.7869 236.467C61.6045 236.265 65.4059 234.028 66.1865 232.467" stroke="black" stroke-width="50" stroke-linecap="round"/>
<path d="M38.9882 232.467H43.7879" stroke="black" stroke-width="50" stroke-linecap="round"/>
<path d="M90.185 239.667C90.4602 237.465 95.7569 237.322 96.5846 235.667" stroke="black" stroke-width="50" stroke-linecap="round"/>
<path d="M122.183 232.467C124.314 232.467 128.315 232.21 130.005 230.689C132.286 228.636 137.08 230.867 139.782 230.867" stroke="black" stroke-width="50" stroke-linecap="round"/>
<path d="M163.78 235.667C168.045 235.667 173.67 234.612 177.38 236.467" stroke="black" stroke-width="50" stroke-linecap="round"/>
<path d="M203.778 238.067C206.337 238.067 211.24 236.291 213.377 234.867" stroke="black" stroke-width="50" stroke-linecap="round"/>
<path d="M238.976 233.267C239.135 234.541 244.981 234.668 246.175 234.867" stroke="black" stroke-width="50" stroke-linecap="round"/>
<path d="M187.779 227.667C187.941 226.373 189.609 227.207 190.179 226.068" stroke="black" stroke-width="50" stroke-linecap="round"/>
<path d="M274.973 238.867C276.804 238.867 278.137 238.885 279.773 238.067" stroke="black" stroke-width="50" stroke-linecap="round"/>
<path d="M262.974 234.067C261.553 234.067 260.93 233.845 259.774 233.267" stroke="black" stroke-width="50" stroke-linecap="round"/>
<path d="M309.371 248.466H311.771" stroke="black" stroke-width="50" stroke-linecap="round"/>
<path d="M326.97 249.266H331.77" stroke="black" stroke-width="50" stroke-linecap="round"/>
<path d="M318.171 242.067C317.224 242.185 317.371 242.87 317.371 243.666" stroke="black" stroke-width="50" stroke-linecap="round"/>
<path d="M304.572 238.867C305.885 238.867 307.179 238.481 307.771 239.667" stroke="black" stroke-width="50" stroke-linecap="round"/>
<path d="M-7.40186 8.79973C-4.11582 8.79973 -2.40872 8.20195 0.597642 7.19983" stroke="black" stroke-width="50" stroke-linecap="round"/>
<path d="M22.1963 14.3993C24.4238 14.3993 26.3683 15.1992 28.5959 15.1992" stroke="black" stroke-width="50" stroke-linecap="round"/>
<path d="M58.194 6.39978V7.99968" stroke="black" stroke-width="50" stroke-linecap="round"/>
<path d="M84.5924 22.3988V21.5989" stroke="black" stroke-width="50" stroke-linecap="round"/>
<path d="M96.5916 8.79971V7.99976" stroke="black" stroke-width="50" stroke-linecap="round"/>
<path d="M124.59 19.999C126.992 19.999 129.852 19.8739 130.989 17.5991" stroke="black" stroke-width="50" stroke-linecap="round"/>
<path d="M158.988 15.9992C157.828 15.8543 158.188 14.4974 158.188 13.5994" stroke="black" stroke-width="50" stroke-linecap="round"/>
<path d="M192.586 7.99978C191.622 7.8793 191.337 7.19983 190.186 7.19983" stroke="black" stroke-width="50" stroke-linecap="round"/>
<path d="M223.784 19.999H225.384" stroke="black" stroke-width="50" stroke-linecap="round"/>
<path d="M219.784 10.3996C219.876 9.6625 220.044 9.86976 220.584 9.59961" stroke="black" stroke-width="50" stroke-linecap="round"/>
<path d="M238.983 11.1995C241.174 11.4186 243.127 11.9994 245.382 11.9994" stroke="black" stroke-width="50" stroke-linecap="round"/>
<path d="M275.78 10.3995C277.486 10.3995 278.268 11.4954 279.78 11.9994" stroke="black" stroke-width="50" stroke-linecap="round"/>
<path d="M304.579 12.7994C304.662 12.0527 304.981 11.7956 305.379 11.1995" stroke="black" stroke-width="50" stroke-linecap="round"/>
<path d="M-8.20181 38.3978H-5.00201" stroke="black" stroke-width="50" stroke-linecap="round"/>
<path d="M19.7964 36.7979H21.3963" stroke="black" stroke-width="50" stroke-linecap="round"/>
<path d="M54.1943 35.198C54.3078 36.1062 55.1072 36.4544 55.7942 36.7979" stroke="black" stroke-width="50" stroke-linecap="round"/>
<path d="M92.5919 40.7976C92.6908 42.4801 93.5764 42.7667 94.1918 43.9974" stroke="black" stroke-width="50" stroke-linecap="round"/>
<path d="M130.989 41.5977H135.789" stroke="black" stroke-width="50" stroke-linecap="round"/>
<path d="M170.187 37.5979C170.305 36.6511 170.99 36.7979 171.787 36.7979" stroke="black" stroke-width="50" stroke-linecap="round"/>
<path d="M195.785 29.5983C195.785 28.3997 196.034 27.7229 194.985 27.1985" stroke="black" stroke-width="50" stroke-linecap="round"/>
<path d="M224.584 50.3971H226.183" stroke="black" stroke-width="50" stroke-linecap="round"/>
<path d="M194.185 51.197V53.5969" stroke="black" stroke-width="50" stroke-linecap="round"/>
<path d="M261.381 31.1982H263.781" stroke="black" stroke-width="50" stroke-linecap="round"/>
<path d="M77.3928 40.7976C76.6558 40.8897 76.863 41.0572 76.5929 41.5976" stroke="black" stroke-width="50" stroke-linecap="round"/>
<path d="M6.99724 51.9969C6.99724 53.1955 6.74833 53.8724 7.79719 54.3968" stroke="black" stroke-width="50" stroke-linecap="round"/>
<path d="M-21.801 47.1973V48.7972" stroke="black" stroke-width="50" stroke-linecap="round"/>
<path d="M290.179 32.7982H291.779" stroke="black" stroke-width="50" stroke-linecap="round"/>
<path d="M246.982 49.5971C246.899 48.8504 246.58 48.5933 246.182 47.9972" stroke="black" stroke-width="50" stroke-linecap="round"/>
<path d="M335.777 22.4811C335.686 21.6698 335.232 20.8485 334.977 20.0813" stroke="black" stroke-width="50" stroke-linecap="round"/>
<path d="M364.575 19.2814C363.828 19.1984 363.571 18.8789 362.975 18.4814" stroke="black" stroke-width="50" stroke-linecap="round"/>
<path d="M326.177 22.3988C324.033 22.3988 323.784 21.6024 322.177 20.799" stroke="black" stroke-width="50" stroke-linecap="round"/>
<path d="M362.175 26.3986H365.375" stroke="black" stroke-width="50" stroke-linecap="round"/>
<path d="M395.773 6.39985C395.345 6.34634 393.578 4.40952 393.373 4" stroke="black" stroke-width="50" stroke-linecap="round"/>
<path d="M431.771 7.19978C431.771 6.00118 431.522 5.32436 432.57 4.79993" stroke="black" stroke-width="50" stroke-linecap="round"/>
<path d="M455.769 16.0816C455.032 15.9894 455.239 15.8219 454.969 15.2816" stroke="black" stroke-width="50" stroke-linecap="round"/>
<path d="M478.961 5.28137C478.094 4.58783 476.411 3.63146 475.361 3.28149" stroke="black" stroke-width="50" stroke-linecap="round"/>
<path d="M497.759 3.28147C497.759 2.72604 497.661 2.5337 497.359 2.08154" stroke="black" stroke-width="50" stroke-linecap="round"/>
</g>
<defs>
<clipPath id="clip0_19_2">
<rect width="660" height="240" fill="white"/>
</clipPath>
</defs>
</svg>
